<svg id="Layer_1" data-name="Layer 1" xmlns="http://www.w3.org/2000/svg" viewBox="0 0 129.73 116.07"><defs><style>.cls-1{fill:#6e6e6e;}.cls-2{fill:#3baccf;}</style></defs><title>collaboration</title><path class="cls-1" d="M117.5,37.11a.79.79,0,0,0,.8-.8V23.21a.8.8,0,0,0-1.6,0v13.1A.86.86,0,0,0,117.5,37.11Z"/><path class="cls-1" d="M117.5,45.61a.79.79,0,0,0,.8-.8v-4.2a.8.8,0,0,0-1.6,0v4.2A.79.79,0,0,0,117.5,45.61Z"/><path class="cls-1" d="M18.3,86.81a.79.79,0,0,0-.8.8v13.1a.8.8,0,1,0,1.6,0V87.61C19,87.21,18.7,86.81,18.3,86.81Z"/><path class="cls-1" d="M18.3,104.21a.79.79,0,0,0-.8.8v4.2a.8.8,0,0,0,1.6,0V105C19,104.51,18.7,104.21,18.3,104.21Z"/><path class="cls-1" d="M6.8,33.71a.72.72,0,0,0,1,0,.78.78,0,0,0,0-1.1L6,30.81a.78.78,0,0,0-1.1,1.1Z"/><path class="cls-1" d="M10.8,37.61l1.8,1.8a.73.73,0,0,0,1,0,.78.78,0,0,0,0-1.1l-1.8-1.8a.78.78,0,0,0-1.1,0C10.5,36.91,10.5,37.41,10.8,37.61Z"/><path class="cls-1" d="M5.6,39.61a.76.76,0,0,0,.5-.2l1.8-1.8a.78.78,0,0,0-1.1-1.1L5,38.41a.78.78,0,0,0,0,1.1A1.27,1.27,0,0,0,5.6,39.61Z"/><path class="cls-1" d="M11.3,33.91a.76.76,0,0,0,.5-.2l1.8-1.8a.78.78,0,1,0-1.1-1.1l-1.8,1.8a.78.78,0,0,0,0,1.1A1.42,1.42,0,0,0,11.3,33.91Z"/><path class="cls-1" d="M117,88.81a.72.72,0,0,0,1,0,.78.78,0,0,0,0-1.1l-1.8-1.8a.78.78,0,0,0-1.1,1.1Z"/><path class="cls-1" d="M122,91.71a.78.78,0,1,0-1.1,1.1l1.8,1.8a.72.72,0,0,0,1,0,.78.78,0,0,0,0-1.1Z"/><path class="cls-1" d="M115.2,94.51a.73.73,0,0,0,1,0l1.8-1.8a.78.78,0,0,0-1.1-1.1l-1.8,1.8A.9.9,0,0,0,115.2,94.51Z"/><path class="cls-1" d="M122.7,85.91l-1.8,1.8a.78.78,0,0,0,0,1.1.72.72,0,0,0,1,0l1.8-1.8a.78.78,0,0,0,0-1.1A.9.9,0,0,0,122.7,85.91Z"/><path class="cls-1" d="M62.2,8.61a.72.72,0,0,0,1,0,.78.78,0,0,0,0-1.1l-1.8-1.8a.78.78,0,1,0-1.1,1.1Z"/><path class="cls-1" d="M67.9,14.31a.73.73,0,0,0,1,0,.78.78,0,0,0,0-1.1l-1.8-1.8a.78.78,0,0,0-1.1,1.1Z"/><path class="cls-1" d="M60.9,14.51a.76.76,0,0,0,.5-.2l1.8-1.8a.78.78,0,1,0-1.1-1.1l-1.8,1.8a.78.78,0,0,0,0,1.1A1.42,1.42,0,0,0,60.9,14.51Z"/><path class="cls-1" d="M66.7,8.81a.76.76,0,0,0,.5-.2L69,6.81a.78.78,0,0,0-1.1-1.1l-1.8,1.8a.78.78,0,0,0,0,1.1A1.42,1.42,0,0,0,66.7,8.81Z"/><path class="cls-1" d="M29.2,106.61a.78.78,0,1,0-1.1,1.1l1.8,1.8a.73.73,0,0,0,1,0,.78.78,0,0,0,0-1.1Z"/><path class="cls-1" d="M35,112.31a.78.78,0,0,0-1.1,1.1l1.8,1.8a.73.73,0,0,0,1,0,.78.78,0,0,0,0-1.1Z"/><path class="cls-1" d="M29.9,112.31l-1.8,1.8a.78.78,0,0,0,0,1.1.73.73,0,0,0,1,0l1.8-1.8a.78.78,0,0,0,0-1.1A.67.67,0,0,0,29.9,112.31Z"/><path class="cls-1" d="M35.7,106.61l-1.8,1.8a.78.78,0,0,0,0,1.1.73.73,0,0,0,1,0l1.8-1.8a.78.78,0,0,0,0-1.1A.67.67,0,0,0,35.7,106.61Z"/><path class="cls-1" d="M102.5,11.41a4.06,4.06,0,0,0,4.1-4.1,4.1,4.1,0,1,0-8.2,0A4.12,4.12,0,0,0,102.5,11.41Zm0-6.7a2.65,2.65,0,0,1,2.6,2.6,2.6,2.6,0,1,1-5.2,0A2.65,2.65,0,0,1,102.5,4.71Z"/><path class="cls-1" d="M4.6,86.71a4.1,4.1,0,0,0,0,8.2,4.1,4.1,0,0,0,0-8.2Zm0,6.7a2.6,2.6,0,0,1,0-5.2,2.6,2.6,0,0,1,0,5.2Z"/><path class="cls-1" d="M16.9,5.41H32.4a.79.79,0,0,0,.8-.8.74.74,0,0,0-.8-.8H16.9a.8.8,0,0,0,0,1.6Z"/><path class="cls-1" d="M6.8,5.41h5a.79.79,0,0,0,.8-.8.74.74,0,0,0-.8-.8h-5a1,1,0,0,0-.7.9A.68.68,0,0,0,6.8,5.41Z"/><path class="cls-1" d="M6.8,10.81H17.6a.79.79,0,0,0,.8-.8c0-.5-.3-.7-.8-.7H6.8a.79.79,0,0,0-.8.8A.71.71,0,0,0,6.8,10.81Z"/><path class="cls-1" d="M26.5,10a.79.79,0,0,0-.8-.8H22.2a.79.79,0,0,0-.8.8.74.74,0,0,0,.8.8h3.5A.79.79,0,0,0,26.5,10Z"/><path class="cls-1" d="M110.5,110.11H94.9a.8.8,0,1,0,0,1.6h15.5a.79.79,0,0,0,.8-.8A.71.71,0,0,0,110.5,110.11Z"/><path class="cls-1" d="M120.6,110.11h-5a.8.8,0,0,0,0,1.6h5a.79.79,0,0,0,.8-.8C121.3,110.41,121,110.11,120.6,110.11Z"/><path class="cls-1" d="M120.6,104.81H109.8a.8.8,0,0,0,0,1.6h10.8a.79.79,0,0,0,.8-.8C121.3,105.11,121,104.81,120.6,104.81Z"/><path class="cls-1" d="M105.1,106.31a.8.8,0,1,0,0-1.6h-3.5a.8.8,0,1,0,0,1.6Z"/><path class="cls-1" d="M24.7,25v2.5a4.59,4.59,0,0,0,4.6,4.6H91a.37.37,0,0,0,.3-.1l11.4-5.1a.67.67,0,0,0,.4-.7.84.84,0,0,0-.4-.7l-11.4-5.1a.45.45,0,0,0-.5,0H29.3A4.65,4.65,0,0,0,24.7,25Zm1.5,2.5V25a3.12,3.12,0,0,1,3.1-3.1h6.3v8.7H29.3A3.12,3.12,0,0,1,26.2,27.51Zm10.9-5.6h3.3v8.7H37.1Zm54.4,8.5v-8.2l9.2,4.1Zm-1.5.2H41.9v-8.7H90Z"/><path class="cls-1" d="M81.5,27h2a.8.8,0,0,0,0-1.6h-2a.79.79,0,0,0-.8.8A.74.74,0,0,0,81.5,27Z"/><path class="cls-1" d="M71.4,27h4a.8.8,0,0,0,0-1.6h-4a.79.79,0,0,0-.8.8C70.7,26.71,71,27,71.4,27Z"/><path class="cls-1" d="M51.3,27h4a.8.8,0,1,0,0-1.6h-4a.79.79,0,0,0-.8.8C50.6,26.71,50.9,27,51.3,27Z"/><path class="cls-1" d="M61.4,27h4a.8.8,0,0,0,0-1.6h-4a.8.8,0,1,0,0,1.6Z"/><path class="cls-1" d="M127.4,64.41a.78.78,0,0,0-1-.2c-4.9,3.3-9.8,6.9-14.5,10.5a3.91,3.91,0,0,1-2.8.9,2.54,2.54,0,0,1-1.4-.8L91.1,50.61a2,2,0,0,1-.3-1.6,4,4,0,0,1,1.8-2.3c3.5-2.1,7-4.4,10.4-6.6a.72.72,0,1,0-.8-1.2c-3.4,2.2-6.9,4.5-10.4,6.6a5,5,0,0,0-2.4,3H38.6a5,5,0,0,0-2.4-3c-3.5-2.1-7-4.3-10.4-6.6a.72.72,0,0,0-.8,1.2c3.4,2.3,6.9,4.5,10.4,6.6A4,4,0,0,1,37.2,49v.2a.6.6,0,0,0,.1.4,1.93,1.93,0,0,1-.3,1L20.4,74.81a2.54,2.54,0,0,1-1.4.8,3.91,3.91,0,0,1-2.8-.9c-4.7-3.7-9.6-7.2-14.5-10.5a.78.78,0,0,0-1,.2.78.78,0,0,0,.2,1q7.35,4.95,14.4,10.5a5.37,5.37,0,0,0,3.3,1.2,2,2,0,0,0,.7-.1,4.18,4.18,0,0,0,2.4-1.4l1.7-2.4a15,15,0,0,1,4,4.5A13.92,13.92,0,0,1,28,79c.1.3.3.6.4.9a5.71,5.71,0,0,0-1.4,1.3l-.9,1.1a5.07,5.07,0,0,0-.9,3.8,4.8,4.8,0,0,0,2,3.3l1.3,1h0a4.92,4.92,0,0,0,3,1,7.72,7.72,0,0,0,1.5-.2,5.24,5.24,0,0,0,2,5l1.1.8h0a5,5,0,0,0,3.1,1,4.48,4.48,0,0,0,2-.4v1.3a4.78,4.78,0,0,0,2.1,3.4l1.1.8h0a5,5,0,0,0,3.1,1,2.2,2.2,0,0,0,.8-.1,8.8,8.8,0,0,0,1.5-.5v.9a4.61,4.61,0,0,0,1.9,3.1l.8.6h0a4.68,4.68,0,0,0,2.8.9,4.74,4.74,0,0,0,3.8-1.9l.6-.8c.1.1.1.3.3.3a6.06,6.06,0,0,0,3.5,1.1,3.75,3.75,0,0,0,1.1-.1,5.86,5.86,0,0,0,3.9-2.6,6.26,6.26,0,0,0,.9-5.1l3.1,2.2a6.56,6.56,0,0,0,3.5,1.1,6.2,6.2,0,0,0,6-7.7l1.7,1.2a6.56,6.56,0,0,0,3.5,1.1,6,6,0,0,0,5.1-2.7,6.2,6.2,0,0,0,.9-5.1l2.2,1.5a6.06,6.06,0,0,0,3.5,1.1,3.75,3.75,0,0,0,1.1-.1,5.86,5.86,0,0,0,3.9-2.6,6.24,6.24,0,0,0-1.6-8.6l-21.9-15a.66.66,0,0,0-.6-.1H76c-8,0-9-6.5-9-6.8a.75.75,0,0,0-.7-.7H53.4a.67.67,0,0,0-.7.6c-.7,3.8-2,6.4-4.1,7.6a6.29,6.29,0,0,1-3.9.8V56.81L56.9,50H89.4a3.81,3.81,0,0,0,.5,1.5l16.6,24.1a3.16,3.16,0,0,0,2.4,1.4c.2,0,.4.1.7.1a5.37,5.37,0,0,0,3.3-1.2c4.7-3.6,9.6-7.2,14.4-10.5A.9.9,0,0,0,127.4,64.41ZM29.3,89.21l-1.3-1a3.34,3.34,0,0,1-1.4-2.4,3.82,3.82,0,0,1,.7-2.7l.8-1.1a3.53,3.53,0,0,1,5-.7l1.3,1a3.61,3.61,0,0,1,1.2,4.3L34,88.81a.35.35,0,0,0-.1.2A3.76,3.76,0,0,1,29.3,89.21Zm7.7,6.5-1.1-.8a3.84,3.84,0,0,1-1.5-2.4A3.61,3.61,0,0,1,35,90l.6-.6.8-1.1a4.05,4.05,0,0,0,.5-.9l1.4-1.9A3.84,3.84,0,0,1,40.7,84a3.58,3.58,0,0,1,2.7.7l1.1.8a3.78,3.78,0,0,1,.8,5.2l-3.1,4.2A3.69,3.69,0,0,1,37,95.71Zm11.1,6.8a3.58,3.58,0,0,1-2.7-.7l-1.1-.8a3.84,3.84,0,0,1-1.5-2.4,3.58,3.58,0,0,1,.7-2.7L48.6,89a3.84,3.84,0,0,1,2.4-1.5,3.58,3.58,0,0,1,2.7.7l1.1.8a3.84,3.84,0,0,1,1.5,2.4,3.58,3.58,0,0,1-.7,2.7L50.5,101A3.34,3.34,0,0,1,48.1,102.51Zm11,2.2-1.1,1.6a3.31,3.31,0,0,1-4.5.7l-.8-.6a3.17,3.17,0,0,1-1.3-2.1,3.48,3.48,0,0,1,.6-2.4l1.2-1.6a3.31,3.31,0,0,1,4.5-.7l.8.6A3.19,3.19,0,0,1,59.1,104.71Zm-15.6-49a.84.84,0,0,0-.4.7v12.3a.75.75,0,0,0,.5.7,6.77,6.77,0,0,0,1.9.3,7.69,7.69,0,0,0,3.8-1c2.3-1.4,3.9-4.1,4.7-8.1H65.5c.5,1.9,2.6,7.4,10.4,7.4h3.9l21.6,14.8a4.73,4.73,0,0,1,1.2,6.5,4.66,4.66,0,0,1-6.5,1.2l-5.5-3.7h0L75.1,76a.72.72,0,1,0-.8,1.2l15.5,10.6a4.67,4.67,0,1,1-5.3,7.7L69,84.91a.92.92,0,0,0-1,.1c-.1.1-.2.1-.2.2a.78.78,0,0,0,.2,1l10.6,7a4.73,4.73,0,0,1,1.2,6.5,4.63,4.63,0,0,1-6.4,1.2l-10-7.1a.79.79,0,0,0-.9,1.3l3.3,2.4c.1.1.1.3.3.3a4.73,4.73,0,0,1,1.2,6.5,4.63,4.63,0,0,1-3,1.9,4.78,4.78,0,0,1-3.5-.7c-.1-.1-.2-.1-.4-.1a4.76,4.76,0,0,0,.7-3.3A4.61,4.61,0,0,0,59.2,99l-.8-.6a4.47,4.47,0,0,0-3.5-.9l1.8-2.4a5.37,5.37,0,0,0,1-3.9,4.78,4.78,0,0,0-2.1-3.4L54.5,87a5.37,5.37,0,0,0-3.9-1,5.58,5.58,0,0,0-3.3,1.9,5.42,5.42,0,0,0-2.1-3.5l-1.1-.8a5.37,5.37,0,0,0-3.9-1,4.94,4.94,0,0,0-3.2,1.8,4.81,4.81,0,0,0-2-3.2l-1.3-1a5.16,5.16,0,0,0-4.3-.8,6.89,6.89,0,0,1-.4-1,9.75,9.75,0,0,1-.6-1.4,17.39,17.39,0,0,0-4.5-5L38,51.51a2.69,2.69,0,0,0,.5-1.5h15Z"/><path class="cls-1" d="M111.5,68.51a4,4,0,1,0-4-4A4,4,0,0,0,111.5,68.51Zm0-6.5a2.5,2.5,0,1,1-2.5,2.5A2.48,2.48,0,0,1,111.5,62Z"/><path class="cls-1" d="M16.5,68.51a4,4,0,1,0-4-4A4,4,0,0,0,16.5,68.51Zm0-6.5a2.5,2.5,0,0,1,0,5,2.54,2.54,0,0,1-2.5-2.5A2.48,2.48,0,0,1,16.5,62Z"/><path class="cls-2" d="M18.86,84.81a.83.83,0,0,0-.84.8l-.69,13.1a.74.74,0,0,0,.76.8.84.84,0,0,0,.84-.8l.69-13.1C19.54,85.21,19.26,84.81,18.86,84.81Z"/><path class="cls-2" d="M18,102.21a.85.85,0,0,0-.85.8l-.22,4.2a.74.74,0,0,0,.76.8.83.83,0,0,0,.84-.8l.22-4.2C18.63,102.51,18.35,102.21,18,102.21Z"/><path class="cls-2" d="M117.45,86.81a.74.74,0,0,0,.49.2.79.79,0,0,0,.51-.2.78.78,0,0,0,.06-1.1l-1.7-1.8a.8.8,0,0,0-1.16,1.1Z"/><path class="cls-2" d="M122.3,89.71a.78.78,0,0,0-1.1,0,.8.8,0,0,0-.06,1.1l1.71,1.8a.72.72,0,0,0,.49.2.81.81,0,0,0,.51-.2.79.79,0,0,0,.06-1.1Z"/><path class="cls-2" d="M115.36,92.51a.69.69,0,0,0,.48.2.84.84,0,0,0,.52-.2l1.89-1.8a.76.76,0,1,0-1-1.1l-1.9,1.8A.88.88,0,0,0,115.36,92.51Z"/><path class="cls-2" d="M123.31,83.91l-1.9,1.8a.8.8,0,0,0-.06,1.1.74.74,0,0,0,.49.2.79.79,0,0,0,.51-.2l1.9-1.8a.8.8,0,0,0,.06-1.1A.9.9,0,0,0,123.31,83.91Z"/><path class="cls-2" d="M28.72,104.61a.78.78,0,0,0-1.1,0,.8.8,0,0,0-.06,1.1l1.71,1.8a.72.72,0,0,0,.49.2.81.81,0,0,0,.51-.2.8.8,0,0,0,.06-1.1Z"/><path class="cls-2" d="M34.22,110.31a.78.78,0,0,0-1.1,0,.8.8,0,0,0-.06,1.1l1.71,1.8a.74.74,0,0,0,.49.2.78.78,0,0,0,.57-1.3Z"/><path class="cls-2" d="M29.12,110.31l-1.89,1.8a.79.79,0,0,0-.06,1.1.74.74,0,0,0,.49.2.79.79,0,0,0,.51-.2l1.89-1.8a.78.78,0,0,0,.06-1.1A.66.66,0,0,0,29.12,110.31Z"/><path class="cls-2" d="M35.22,104.61l-1.89,1.8a.78.78,0,0,0-.06,1.1.72.72,0,0,0,.49.2.81.81,0,0,0,.51-.2l1.89-1.8a.78.78,0,0,0,.06-1.1A.66.66,0,0,0,35.22,104.61Z"/><path class="cls-2" d="M106.44,10.37a4.86,4.86,0,0,0,4.88-4.58,4.28,4.28,0,0,0-4.39-4.58A4.87,4.87,0,0,0,102,5.79,4.35,4.35,0,0,0,106.44,10.37Zm.92-7.66a2.49,2.49,0,0,1,2.47,2.6,2.83,2.83,0,0,1-2.74,2.6,2.48,2.48,0,0,1-2.46-2.6A2.82,2.82,0,0,1,107.36,2.71Z"/><path class="cls-2" d="M6,84A5,5,0,0,0,.85,88.43a4.37,4.37,0,0,0,4.67,4.48,5,5,0,0,0,5.19-4.48A4.37,4.37,0,0,0,6,84ZM4.81,91.41a2.48,2.48,0,0,1-2.46-2.6,2.82,2.82,0,0,1,2.74-2.6,2.48,2.48,0,0,1,2.46,2.6A2.82,2.82,0,0,1,4.81,91.41Z"/><path class="cls-2" d="M21.72,3.41h15.5a.85.85,0,0,0,.85-.8.7.7,0,0,0-.76-.8H21.81a.83.83,0,0,0-.84.8A.73.73,0,0,0,21.72,3.41Z"/><path class="cls-2" d="M11.62,3.41h5a.85.85,0,0,0,.85-.8.7.7,0,0,0-.76-.8h-5a1,1,0,0,0-.75.9A.64.64,0,0,0,11.62,3.41Z"/><path class="cls-2" d="M11.34,8.81h10.8A.83.83,0,0,0,23,8c0-.5-.26-.7-.76-.7H11.42a.83.83,0,0,0-.84.8C10.55,8.61,10.94,8.81,11.34,8.81Z"/><path class="cls-2" d="M31.08,8a.74.74,0,0,0-.75-.8h-3.5A.85.85,0,0,0,26,8a.7.7,0,0,0,.76.8h3.5A.84.84,0,0,0,31.08,8Z"/><path class="cls-2" d="M109.84,108.11H94.24a.83.83,0,0,0-.84.8.73.73,0,0,0,.75.8h15.5a.85.85,0,0,0,.85-.8C110.52,108.41,110.24,108.11,109.84,108.11Z"/><path class="cls-2" d="M119.94,108.11h-5a.83.83,0,0,0-.84.8.73.73,0,0,0,.75.8h5a.85.85,0,0,0,.85-.8C120.62,108.41,120.34,108.11,119.94,108.11Z"/><path class="cls-2" d="M120.22,102.81h-10.8a.85.85,0,0,0-.85.8.74.74,0,0,0,.76.8h10.8a.83.83,0,0,0,.84-.8C120.9,103.11,120.62,102.81,120.22,102.81Z"/><path class="cls-2" d="M104.64,104.31a.84.84,0,0,0,.84-.8.74.74,0,0,0-.76-.8h-3.5a.83.83,0,0,0-.84.8.74.74,0,0,0,.76.8Z"/><path class="cls-2" d="M28.5,22.46l-.13,2.69a4.55,4.55,0,0,0,4.47,5H96.09A.37.37,0,0,0,96.4,30l12-5.49a.78.78,0,0,0,.45-.76.84.84,0,0,0-.37-.75L97,17.5a.44.44,0,0,0-.51,0h-63A5.21,5.21,0,0,0,28.5,22.46Zm1.37,3.05L30,23a3.32,3.32,0,0,1,3.26-3.1h6.3l-.46,8.7H32.8A2.92,2.92,0,0,1,29.87,25.51Zm11.19-5.6h3.3l-.46,8.7H40.6Zm54,8.5.43-8.2,9,4.1Zm-1.51.2H45.4l.46-8.7H94Z"/><path class="cls-2" d="M85.19,25h2a.83.83,0,0,0,.84-.8.73.73,0,0,0-.75-.8h-2a.85.85,0,0,0-.85.8A.7.7,0,0,0,85.19,25Z"/><path class="cls-2" d="M75.09,25h4a.83.83,0,0,0,.84-.8.73.73,0,0,0-.75-.8h-4a.85.85,0,0,0-.85.8C74.41,24.71,74.69,25,75.09,25Z"/><path class="cls-2" d="M55,25h4a.83.83,0,0,0,.84-.8.73.73,0,0,0-.75-.8h-4a.85.85,0,0,0-.85.8C54.31,24.71,54.59,25,55,25Z"/><path class="cls-2" d="M65.09,25h4a.83.83,0,0,0,.84-.8.73.73,0,0,0-.75-.8h-4a.85.85,0,0,0-.85.8A.75.75,0,0,0,65.09,25Z"/><path class="cls-2" d="M129.13,62.41a.76.76,0,0,0-1-.2c-5.07,3.3-10.16,6.9-15,10.5a4.06,4.06,0,0,1-2.84.9,2.36,2.36,0,0,1-1.36-.8L93.56,48.61a2,2,0,0,1-.22-1.6,4.31,4.31,0,0,1,1.92-2.3c3.61-2.1,7.23-4.4,10.75-6.6a.8.8,0,0,0,.25-1,.76.76,0,0,0-1-.2c-3.52,2.2-7.14,4.5-10.75,6.6a5.42,5.42,0,0,0-2.55,3H41.17a4.68,4.68,0,0,0-2.25-3c-3.39-2.1-6.77-4.3-10-6.6a.79.79,0,0,0-1,.2c-.22.3.5,1.13.79,1.33,3.28,2.3,5,3.17,8.41,5.27A3.7,3.7,0,0,1,38.74,46c0,.1,0,.32,0,.42s0,.08.06.18a2.12,2.12,0,0,1-.35,1L20.59,71.81a2.74,2.74,0,0,1-1.44.8,3.77,3.77,0,0,1-2.76-.9c-4.5-3.7-8.22-6.2-12.95-9.5a.8.8,0,0,0-1,.2.76.76,0,0,0,.15,1q7.09,4.95,13.85,10.5a5.13,5.13,0,0,0,3.24,1.2,2,2,0,0,0,.7-.1,4.49,4.49,0,0,0,2.48-1.4l1.82-2.4a13.89,13.89,0,0,1,3.77,4.5c.27.5.35.9.53,1.3s.27.6.35.9a6.16,6.16,0,0,0-1.47,1.3l-1,1.1a5.28,5.28,0,0,0-1.09,3.8,4.46,4.46,0,0,0,1.82,3.3l1.25,1h0a4.7,4.7,0,0,0,2.95,1,7.92,7.92,0,0,0,1.51-.2,5,5,0,0,0,1.74,5l1,.8h0a4.8,4.8,0,0,0,3.05,1,4.59,4.59,0,0,0,2-.4l-.07,1.3a4.5,4.5,0,0,0,1.93,3.4l1.05.8h0a4.8,4.8,0,0,0,3,1A2.28,2.28,0,0,0,48,102a9.3,9.3,0,0,0,1.52-.5l0,.9a4.32,4.32,0,0,0,1.73,3.1l.77.6h0a4.5,4.5,0,0,0,2.76.9,5,5,0,0,0,3.89-1.9l.65-.8c.09.1.08.3.28.3a5.79,5.79,0,0,0,3.44,1.1,3.85,3.85,0,0,0,1.11-.1,6.27,6.27,0,0,0,4-2.6,6.42,6.42,0,0,0,1.17-5.1l3,2.2a6.26,6.26,0,0,0,3.44,1.1,6.37,6.37,0,0,0,5.24-2.7,6.19,6.19,0,0,0,1.16-5l1.64,1.2a6.26,6.26,0,0,0,3.44,1.1A6.61,6.61,0,0,0,93.59,88l2.12,1.5a5.81,5.81,0,0,0,3.44,1.1,3.85,3.85,0,0,0,1.11-.1,6.29,6.29,0,0,0,4-2.6,6.13,6.13,0,0,0-1.15-8.6L82,64.31a.64.64,0,0,0-.59-.1h-3.8c-8,0-8.66-6.5-8.65-6.8a.7.7,0,0,0-.66-.7H55.43a.71.71,0,0,0-.73.6c-.9,3.8-2.34,6.4-4.5,7.6a6.46,6.46,0,0,1-3.94.8l.57-10.9L58.39,49h32.5a3.57,3.57,0,0,0,.42,1.5l15.34,24.1A3,3,0,0,0,109,76c.2,0,.4.1.7.1a5.62,5.62,0,0,0,3.36-1.2c4.89-3.6,11-8.2,15.95-11.5A.91.91,0,0,0,129.13,62.41ZM29.39,87.28l-1.08-.91a2.87,2.87,0,0,1-1.1-2.16,3.64,3.64,0,0,1,.73-2.44l.74-1A3,3,0,0,1,33,80.14l1.08.91A3.23,3.23,0,0,1,35,84.93l-1.48,2a.37.37,0,0,0-.1.18A3.17,3.17,0,0,1,29.39,87.28Zm7.41,6.49L35.87,93a3.31,3.31,0,0,1-1.21-2.2,3.53,3.53,0,0,1,.64-2.29l.56-.55.76-1a3.65,3.65,0,0,0,.48-.82l1.32-1.74a3.57,3.57,0,0,1,2.18-1.37A3,3,0,0,1,43,83.7l.93.73a3.49,3.49,0,0,1,.47,4.76L41.42,93A3.23,3.23,0,0,1,36.8,93.77Zm10.75,6.74A3.29,3.29,0,0,1,45,99.86l-1-.74a3.3,3.3,0,0,1-1.3-2.22,3.41,3.41,0,0,1,.79-2.5L48.69,88A3.94,3.94,0,0,1,51,86.61a3.32,3.32,0,0,1,2.52.65l1,.74a3.32,3.32,0,0,1,1.3,2.22,3.41,3.41,0,0,1-.79,2.51l-5.16,6.39A3.34,3.34,0,0,1,47.55,100.51ZM57.85,103l-1.05,1.45a3,3,0,0,1-4,.63l-.68-.54a2.69,2.69,0,0,1-1.06-1.9,3.37,3.37,0,0,1,.64-2.17L52.82,99a3,3,0,0,1,4-.63l.68.54A2.86,2.86,0,0,1,57.85,103ZM45.47,54.36a.9.9,0,0,0-.43.69L44.4,67.19a.7.7,0,0,0,.46.69,6.52,6.52,0,0,0,1.87.3,7.91,7.91,0,0,0,3.81-1c2.35-1.38,4.07-4,5.07-8H67c.39,1.87,2.19,7.3,9.9,7.3h3.86l20.61,14.61a4.58,4.58,0,0,1,.85,6.42,4.73,4.73,0,0,1-6.5,1.18l-5.25-3.65h0L75.69,74.4a.78.78,0,0,0-1,.2.74.74,0,0,0,.14,1L89.62,86.05a4.56,4.56,0,0,1,.85,6.41A4.79,4.79,0,0,1,84,93.65L69.19,83.18a.94.94,0,0,0-1,.1c-.11.1-.21.1-.21.2a.75.75,0,0,0,.14,1l10.13,6.91a4.57,4.57,0,0,1,.85,6.41A4.7,4.7,0,0,1,72.71,99l-9.52-7a.82.82,0,0,0-1.1.2.78.78,0,0,0,.14,1.08l3.14,2.37c.09.1.08.3.28.3a4.57,4.57,0,0,1,.85,6.42,4.93,4.93,0,0,1-3.06,1.87,4.6,4.6,0,0,1-3.43-.69c-.1-.1-.19-.1-.39-.1a4.86,4.86,0,0,0,.86-3.26,4.24,4.24,0,0,0-1.72-3.06L58,96.51a4.29,4.29,0,0,0-3.41-.89l1.9-2.37a5.46,5.46,0,0,0,1.19-3.85,4.39,4.39,0,0,0-1.9-3.35l-1.05-.79a5.11,5.11,0,0,0-3.8-1,5.93,5.93,0,0,0-3.37,1.88,5,5,0,0,0-1.89-3.46l-1.05-.79a5.18,5.18,0,0,0-3.81-1,5.26,5.26,0,0,0-3.26,1.78,4.44,4.44,0,0,0-1.81-3.16l-1.23-1a5,5,0,0,0-4.22-.78,7.34,7.34,0,0,1-.34-1,8.41,8.41,0,0,1-.52-1.38,15.89,15.89,0,0,0-4.2-4.94l15-20.24a2.68,2.68,0,0,0,.57-1.48H55.66Z"/><path class="cls-2" d="M113.44,66.51a4.75,4.75,0,0,0,4.68-4.45,4.19,4.19,0,0,0-4.21-4.45,4.75,4.75,0,0,0-4.68,4.45A4.19,4.19,0,0,0,113.44,66.51Zm-.08-6.5a2.33,2.33,0,0,1,2.37,2.5A2.64,2.64,0,0,1,113.1,65a2.32,2.32,0,0,1-2.37-2.5A2.63,2.63,0,0,1,113.36,60Z"/><path class="cls-2" d="M18.53,66.51A4.86,4.86,0,0,0,23.3,62,4.28,4.28,0,0,0,19,57.4,4.86,4.86,0,0,0,14.23,62,4.28,4.28,0,0,0,18.53,66.51ZM18.36,60a2.33,2.33,0,0,1,2.37,2.5A2.64,2.64,0,0,1,18.1,65a2.38,2.38,0,0,1-2.37-2.5A2.63,2.63,0,0,1,18.36,60Z"/></svg>