<svg id="Layer_1" data-name="Layer 1" xmlns="http://www.w3.org/2000/svg" viewBox="0 0 128.95 130.39"><defs><style>.cls-1{fill:#6e6e6e;}.cls-2{fill:#3baccf;}</style></defs><title>process</title><path class="cls-1" d="M52.74,43a29,29,0,0,0-28.9,28.9,30.84,30.84,0,0,0,.8,6.8,28.88,28.88,0,0,0,28.1,22.1,27.74,27.74,0,0,0,4.9-.4A28.91,28.91,0,0,0,52.74,43Zm4.7,55.9a25.58,25.58,0,0,1-4.7.4,27.29,27.29,0,0,1-26.6-20.9,28.21,28.21,0,0,1-.8-6.5,27.4,27.4,0,1,1,32.1,27Z"/><path class="cls-1" d="M69.44,63.36l-14.2,6.7a3.09,3.09,0,1,0-2.5,4.9,1.27,1.27,0,0,0,.6-.1l3.5,7.3a.67.67,0,0,0,.7.4.37.37,0,0,0,.3-.1.69.69,0,0,0,.3-1l-3.5-7.3a3,3,0,0,0,1.1-2.4v-.4L70,64.66a.82.82,0,0,0,.4-1A.91.91,0,0,0,69.44,63.36Zm-18.3,8.5a1.6,1.6,0,1,1,2.3,1.4h-.2a1.27,1.27,0,0,1-.6.1A1.42,1.42,0,0,1,51.14,71.86Z"/><path class="cls-1" d="M52.74,52.36a.79.79,0,0,0,.8-.8v-3.1a.8.8,0,0,0-1.6,0v3.1A.79.79,0,0,0,52.74,52.36Z"/><path class="cls-1" d="M32.44,71.16h-3.2a.8.8,0,1,0,0,1.6h3.1a.79.79,0,0,0,.8-.8A.71.71,0,0,0,32.44,71.16Z"/><path class="cls-1" d="M52.74,91.46a.79.79,0,0,0-.8.8v3.2a.8.8,0,0,0,1.6,0v-3.2C53.44,91.76,53.14,91.46,52.74,91.46Z"/><path class="cls-1" d="M76.14,71.16H73a.8.8,0,1,0,0,1.6h3.1a.79.79,0,0,0,.8-.8A.74.74,0,0,0,76.14,71.16Z"/><path class="cls-1" d="M36.64,54.76a.78.78,0,0,0-1.1,1.1l2.2,2.2a.72.72,0,0,0,1,0,.78.78,0,0,0,0-1.1Z"/><path class="cls-1" d="M37.84,85.76,35.64,88a.78.78,0,0,0,0,1.1.73.73,0,0,0,1,0l2.2-2.2a.78.78,0,0,0,0-1.1A.67.67,0,0,0,37.84,85.76Z"/><path class="cls-1" d="M67.64,85.76a.78.78,0,0,0-1.1,1.1l2.2,2.2a.72.72,0,0,0,1,0,.78.78,0,0,0,0-1.1Z"/><path class="cls-1" d="M67,58.26a.76.76,0,0,0,.5-.2l2.2-2.2a.78.78,0,0,0-1.1-1.1L66.44,57a.78.78,0,0,0,0,1.1A.85.85,0,0,0,67,58.26Z"/><path class="cls-1" d="M113.84,63a.72.72,0,0,0,1,0,.78.78,0,0,0,0-1.1l-1.5-1.5a.78.78,0,1,0-1.1,1.1Z"/><path class="cls-1" d="M119.24,68.06a.76.76,0,0,0,.5-.2.78.78,0,0,0,0-1.1l-1.5-1.5a.78.78,0,0,0-1.1,1.1l1.5,1.5A1.42,1.42,0,0,0,119.24,68.06Z"/><path class="cls-1" d="M112.24,67.86a.72.72,0,0,0,1,0l1.5-1.5a.78.78,0,0,0-1.1-1.1l-1.5,1.5A.91.91,0,0,0,112.24,67.86Z"/><path class="cls-1" d="M117.24,63a.72.72,0,0,0,1,0l1.5-1.5a.78.78,0,1,0-1.1-1.1l-1.5,1.5A.91.91,0,0,0,117.24,63Z"/><path class="cls-1" d="M117,10.86a.72.72,0,0,0,1,0,.78.78,0,0,0,0-1.1l-1.5-1.5a.78.78,0,0,0-1.1,1.1Z"/><path class="cls-1" d="M121.94,15.86a.73.73,0,0,0,1,0,.78.78,0,0,0,0-1.1l-1.5-1.5a.78.78,0,1,0-1.1,1.1Z"/><path class="cls-1" d="M116,16.06a.76.76,0,0,0,.5-.2l1.5-1.5a.78.78,0,1,0-1.1-1.1l-1.5,1.5a.78.78,0,0,0,0,1.1A1.42,1.42,0,0,0,116,16.06Z"/><path class="cls-1" d="M120.94,11.16a.76.76,0,0,0,.5-.2l1.5-1.5a.78.78,0,0,0-1.1-1.1l-1.5,1.5a.78.78,0,0,0,0,1.1A1.42,1.42,0,0,0,120.94,11.16Z"/><path class="cls-1" d="M1.94,89.66a.76.76,0,0,0,.5.2.76.76,0,0,0,.5-.2.78.78,0,0,0,0-1.1l-1.5-1.5a.78.78,0,0,0-1.1,0,.78.78,0,0,0,0,1.1Z"/><path class="cls-1" d="M5.34,93.06l1.5,1.5a.72.72,0,0,0,1,0,.78.78,0,0,0,0-1.1L6.34,92a.78.78,0,0,0-1.1,0A.91.91,0,0,0,5.34,93.06Z"/><path class="cls-1" d="M3,92a.78.78,0,0,0-1.1,0l-1.5,1.5a.78.78,0,0,0,0,1.1.76.76,0,0,0,.5.2.76.76,0,0,0,.5-.2l1.5-1.5A.71.71,0,0,0,3,92Z"/><path class="cls-1" d="M5.84,89.86a.76.76,0,0,0,.5-.2l1.5-1.5a.78.78,0,1,0-1.1-1.1l-1.4,1.5a.78.78,0,0,0,0,1.1C5.54,89.76,5.64,89.86,5.84,89.86Z"/><path class="cls-1" d="M13.84,16a3.7,3.7,0,1,0-3.7-3.7A3.76,3.76,0,0,0,13.84,16Zm0-5.9a2.2,2.2,0,1,1-2.2,2.2A2.22,2.22,0,0,1,13.84,10.06Z"/><path class="cls-1" d="M105.14,122.26a3.7,3.7,0,1,0,3.7,3.7A3.76,3.76,0,0,0,105.14,122.26Zm0,5.9a2.2,2.2,0,1,1,2.2-2.2A2.22,2.22,0,0,1,105.14,128.16Z"/><path class="cls-1" d="M102.24,86.16a.79.79,0,0,0,.8.8h13.6a.8.8,0,0,0,0-1.6H103A.86.86,0,0,0,102.24,86.16Z"/><path class="cls-1" d="M120.34,86.16a.79.79,0,0,0,.8.8h4.4a.8.8,0,0,0,0-1.6h-4.4A.86.86,0,0,0,120.34,86.16Z"/><path class="cls-1" d="M125.54,90.06H116a.79.79,0,0,0-.8.8.74.74,0,0,0,.8.8h9.5a.8.8,0,0,0,0-1.6Z"/><path class="cls-1" d="M111.94,90.06h-3.1a.79.79,0,0,0-.8.8.74.74,0,0,0,.8.8h3.1a.8.8,0,1,0,0-1.6Z"/><path class="cls-1" d="M25.14,126.86H11.54a.79.79,0,0,0-.8.8.74.74,0,0,0,.8.8h13.6a.8.8,0,1,0,0-1.6Z"/><path class="cls-1" d="M7,126.86H2.64a.79.79,0,0,0-.8.8.74.74,0,0,0,.8.8H7a.8.8,0,1,0,0-1.6Z"/><path class="cls-1" d="M1.84,122.86a.79.79,0,0,0,.8.8h9.5a.8.8,0,1,0,0-1.6H2.64C2.24,122.16,1.84,122.46,1.84,122.86Z"/><path class="cls-1" d="M19.24,123.66a.8.8,0,1,0,0-1.6h-3a.8.8,0,0,0,0,1.6Z"/><path class="cls-1" d="M83.44,110a.77.77,0,0,0,1-.1l6.3-6.3a.77.77,0,0,0,.1-1l-6.1-7.5a38,38,0,0,0,7-17l9.7-1a.75.75,0,0,0,.7-.7v-8.9a.68.68,0,0,0-.7-.7l-9.7-1a39.76,39.76,0,0,0-3.2-10.5,19.77,19.77,0,0,0,6,.5L96,60a.75.75,0,0,0,.7.5h.2l4.3-1.1a.84.84,0,0,0,.6-.8l-.7-4.4a20,20,0,0,0,7-5.2l4.1,1.9a.78.78,0,0,0,1-.3l2.3-3.8a.78.78,0,0,0-.2-1l-3.6-2.7a19.42,19.42,0,0,0,1.3-8.6l4.2-1.5a.72.72,0,0,0,.5-.9l-1.1-4.2a.84.84,0,0,0-.8-.6l-4.4.7a20,20,0,0,0-5.2-7l1.9-4.1a.78.78,0,0,0-.3-1l-3.8-2.3a.78.78,0,0,0-1,.2l-2.7,3.6a19.42,19.42,0,0,0-8.6-1.3l-1.5-4.2a.72.72,0,0,0-.9-.5l-4.5,1.2a.84.84,0,0,0-.6.8l.7,4.4a20,20,0,0,0-7,5.2l-4.1-1.9a.78.78,0,0,0-1,.3l-2.2,3.8a.78.78,0,0,0,.2,1l3.6,2.7a20.89,20.89,0,0,0-1.2,8.6l-.8.3A38.8,38.8,0,0,0,58.84,33l-1-9.7a.75.75,0,0,0-.7-.7h-8.9a.68.68,0,0,0-.7.7l-1,9.7a40.44,40.44,0,0,0-17,7L22,33.86a.77.77,0,0,0-1,.1l-6.3,6.3a.77.77,0,0,0-.1,1l6.1,7.5a38,38,0,0,0-7,17l-9.7,1a.75.75,0,0,0-.7.7v8.9a.68.68,0,0,0,.7.7l9.7,1a40.44,40.44,0,0,0,7,17l-6.1,7.5a.77.77,0,0,0,.1,1l6.3,6.3a.77.77,0,0,0,1,.1l7.5-6.1a38,38,0,0,0,17,7l1,9.7a.75.75,0,0,0,.7.7h8.9a.68.68,0,0,0,.7-.7l1-9.7a40.44,40.44,0,0,0,17-7Zm-9.2-71.3a.79.79,0,0,0,.5-.8,18.67,18.67,0,0,1,1.3-9,1,1,0,0,0-.2-.9l-3.5-2.6,1.5-2.6,4,1.9a.76.76,0,0,0,.9-.2,17.69,17.69,0,0,1,7.3-5.4.89.89,0,0,0,.5-.8l-.6-4.3,2.9-.7,1.5,4.1a.79.79,0,0,0,.8.5,18.33,18.33,0,0,1,9,1.3,1,1,0,0,0,.9-.2l2.6-3.5,2.6,1.6-1.9,4a.76.76,0,0,0,.2.9,17.07,17.07,0,0,1,5.4,7.3.89.89,0,0,0,.8.5l4.3-.6.7,2.9-4.1,1.5a.79.79,0,0,0-.5.8,18.33,18.33,0,0,1-1.3,9,1,1,0,0,0,.2.9l3.5,2.6-1.6,2.6-4-1.9a.76.76,0,0,0-.9.2,17.07,17.07,0,0,1-7.3,5.4.89.89,0,0,0-.5.8l.6,4.3-2.9.7-1.5-4.1a.75.75,0,0,0-.7-.5h-.1a17.83,17.83,0,0,1-7.6-.8c-.5-.2-1-.3-1.4-.5a1,1,0,0,0-.9.2l-2.6,3.5-2.6-1.5,1.9-4a.76.76,0,0,0-.2-.9,17.07,17.07,0,0,1-5.4-7.3.89.89,0,0,0-.8-.5l-4.4.6-.7-2.9ZM58,109.46a.67.67,0,0,0-.6.7l-1,9.6h-7.5l-1-9.6a.86.86,0,0,0-.6-.7,38.25,38.25,0,0,1-17.4-7.2.75.75,0,0,0-.9,0l-7.4,6.1-5.3-5.3,6.1-7.4a.75.75,0,0,0,0-.9,38.14,38.14,0,0,1-7.3-17.5.67.67,0,0,0-.7-.6l-9.6-1v-7.5l9.6-1a.86.86,0,0,0,.7-.6,38.25,38.25,0,0,1,7.2-17.4.75.75,0,0,0,0-.9l-6.1-7.5,5.3-5.3,7.4,6.1a.75.75,0,0,0,.9,0,38.25,38.25,0,0,1,17.4-7.2.67.67,0,0,0,.6-.7l1-9.6h7.5l1,9.6a.86.86,0,0,0,.6.7,36.78,36.78,0,0,1,12.5,4.1l-1.6.6a.72.72,0,0,0-.5.9l1.1,4.2a.84.84,0,0,0,.8.6l4.4-.7a20,20,0,0,0,5.2,7l-1.9,4.1a.78.78,0,0,0,.3,1l3.8,2.2a.78.78,0,0,0,1-.2l2.7-3.6c.2.1.5.2.7.3a37.73,37.73,0,0,1,3.7,11.8.67.67,0,0,0,.7.6l9.6,1v7.5l-9.6,1a.86.86,0,0,0-.7.6A35.14,35.14,0,0,1,83,94.66a.75.75,0,0,0,0,.9l6.1,7.4-5.3,5.3-7.4-6.1a.75.75,0,0,0-.9,0A38.14,38.14,0,0,1,58,109.46Z"/><path class="cls-1" d="M26.64,21.36c.2,0,.3,0,.4-.1,11.6-8.5,24.7-12.7,35.7-11.5l-6.3,3.7a.71.71,0,0,0-.3,1,.84.84,0,0,0,.7.4.6.6,0,0,0,.4-.1l8.2-4.8h0c.1-.1.2-.1.2-.2v-.1c0-.1.1-.1.1-.2v-.1h0V9c0-.1-.1-.1-.2-.2h0l-7.7-5.5a.79.79,0,0,0-.9,1.3l5.3,3.8c-11.3-1.1-24.5,3.2-36,11.7a.89.89,0,0,0-.2,1.1A1.07,1.07,0,0,0,26.64,21.36Z"/><path class="cls-1" d="M108.44,104a.79.79,0,1,0-1.3-.9c-8.4,11.6-19.7,19.6-30.5,21.8l4.9-5.4a.78.78,0,0,0-1.2-1l-6.4,7h0c-.1.1-.1.2-.2.3v.4h0v.1a.35.35,0,0,0,.1.2l.1.1c.1.1.2.1.3.2h0l9,2.9h.2a.75.75,0,0,0,.7-.5.72.72,0,0,0-.5-.9l-6.2-2C88.74,123.66,99.94,115.56,108.44,104Z"/><path class="cls-1" d="M92.94,48.86A12.9,12.9,0,1,0,80,36,12.93,12.93,0,0,0,92.94,48.86Zm0-24.3A11.4,11.4,0,1,1,81.54,36,11.52,11.52,0,0,1,92.94,24.56Z"/><path class="cls-2" d="M56,40a30.35,30.35,0,0,0-30,35.7A27.05,27.05,0,0,0,53,97.76a28,28,0,0,0,4.92-.4,30.85,30.85,0,0,0,25.5-28.5A27.22,27.22,0,0,0,56,40Zm1.07,55.91a25.66,25.66,0,0,1-4.62.39A25,25,0,0,1,27.52,75.72a27.17,27.17,0,0,1-.45-6.39c.77-14.85,13.42-26.94,28.17-26.94A25.28,25.28,0,0,1,80.61,69.33,28.61,28.61,0,0,1,57.05,95.87Z"/><path class="cls-2" d="M71.58,60.36,56.5,67.28A3,3,0,0,0,54,65.93a3.44,3.44,0,0,0-3.38,3.2,3,3,0,0,0,3,3.2,1.37,1.37,0,0,0,.62-.1l3.23,7.53a.66.66,0,0,0,.71.41.4.4,0,0,0,.31-.1.75.75,0,0,0,.37-1L55.66,71.5A3.31,3.31,0,0,0,56.93,69l0-.41L72.13,61.7a.88.88,0,0,0,.47-1A.91.91,0,0,0,71.58,60.36Zm-18.71,8.5a1.68,1.68,0,0,1,1.68-1.6,1.49,1.49,0,0,1,1.52,1.6,1.66,1.66,0,0,1-1,1.4h-.2a1.27,1.27,0,0,1-.6.1A1.33,1.33,0,0,1,52.87,68.86Z"/><path class="cls-2" d="M55.49,49.36a.83.83,0,0,0,.84-.8l.16-3.1a.73.73,0,0,0-.75-.8.85.85,0,0,0-.85.8l-.16,3.1A.75.75,0,0,0,55.49,49.36Z"/><path class="cls-2" d="M34.2,68.16H31a.84.84,0,0,0-.84.8.74.74,0,0,0,.76.8H34a.83.83,0,0,0,.84-.8A.67.67,0,0,0,34.2,68.16Z"/><path class="cls-2" d="M53.44,88.46a.84.84,0,0,0-.84.8l-.17,3.2a.74.74,0,0,0,.76.8.84.84,0,0,0,.84-.8l.17-3.2C54.13,88.76,53.84,88.46,53.44,88.46Z"/><path class="cls-2" d="M77.9,68.16H74.8A.84.84,0,0,0,74,69a.74.74,0,0,0,.76.8h3.1a.83.83,0,0,0,.84-.8A.69.69,0,0,0,77.9,68.16Z"/><path class="cls-2" d="M39.26,51.76a.8.8,0,0,0-1.15,1.1l2.08,2.2a.74.74,0,0,0,.49.2.78.78,0,0,0,.57-1.3Z"/><path class="cls-2" d="M38.84,82.76,36.52,85a.79.79,0,0,0-.05,1.1.72.72,0,0,0,.49.2.81.81,0,0,0,.51-.2l2.31-2.2a.79.79,0,0,0,.06-1.1A.66.66,0,0,0,38.84,82.76Z"/><path class="cls-2" d="M68.64,82.76a.8.8,0,0,0-1.16,1.1l2.09,2.2a.72.72,0,0,0,.49.2.81.81,0,0,0,.51-.2.79.79,0,0,0,.05-1.1Z"/><path class="cls-2" d="M69.48,55.26a.79.79,0,0,0,.51-.2l2.32-2.2a.76.76,0,1,0-1-1.1L69,54a.79.79,0,0,0-.06,1.1A.81.81,0,0,0,69.48,55.26Z"/><path class="cls-2" d="M116,60a.74.74,0,0,0,.49.2A.79.79,0,0,0,117,60a.78.78,0,0,0,.06-1.1l-1.42-1.5a.8.8,0,0,0-1.16,1.1Z"/><path class="cls-2" d="M121.17,65.06a.81.81,0,0,0,.51-.2.8.8,0,0,0,.06-1.1l-1.43-1.5a.8.8,0,0,0-1.15,1.1l1.42,1.5A1.34,1.34,0,0,0,121.17,65.06Z"/><path class="cls-2" d="M114.18,64.86a.72.72,0,0,0,.49.2.81.81,0,0,0,.51-.2l1.58-1.5a.76.76,0,1,0-1.05-1.1l-1.57,1.5A.89.89,0,0,0,114.18,64.86Z"/><path class="cls-2" d="M119.43,60a.74.74,0,0,0,.49.2.79.79,0,0,0,.51-.2l1.58-1.5a.76.76,0,1,0-1-1.1l-1.58,1.5A.92.92,0,0,0,119.43,60Z"/><path class="cls-2" d="M122,7.86a.74.74,0,0,0,.49.2.79.79,0,0,0,.51-.2.78.78,0,0,0,.06-1.1l-1.42-1.5a.78.78,0,0,0-1.1,0,.8.8,0,0,0-.06,1.1Z"/><path class="cls-2" d="M126.6,12.86a.74.74,0,0,0,.49.2.78.78,0,0,0,.57-1.3l-1.42-1.5a.8.8,0,0,0-1.16,1.1Z"/><path class="cls-2" d="M120.69,13.06a.79.79,0,0,0,.51-.2l1.58-1.5a.76.76,0,1,0-1-1.1l-1.58,1.5a.79.79,0,0,0-.06,1.1A1.38,1.38,0,0,0,120.69,13.06Z"/><path class="cls-2" d="M125.85,8.16a.81.81,0,0,0,.51-.2l1.58-1.5a.8.8,0,0,0,.06-1.1.78.78,0,0,0-1.1,0l-1.58,1.5a.79.79,0,0,0-.06,1.1A1.34,1.34,0,0,0,125.85,8.16Z"/><path class="cls-2" d="M2.74,86.66a.69.69,0,0,0,.48.2.84.84,0,0,0,.52-.2.79.79,0,0,0,0-1.1l-1.42-1.5a.78.78,0,0,0-1.1,0,.8.8,0,0,0-.06,1.1Z"/><path class="cls-2" d="M6,90.06l1.42,1.5a.72.72,0,0,0,.49.2.81.81,0,0,0,.51-.2.8.8,0,0,0,.06-1.1L7,89a.78.78,0,0,0-1.1,0A.9.9,0,0,0,6,90.06Z"/><path class="cls-2" d="M3.71,89a.78.78,0,0,0-1.1,0L1,90.46A.78.78,0,0,0,1,91.56a.72.72,0,0,0,.49.2.81.81,0,0,0,.51-.2l1.58-1.5A.72.72,0,0,0,3.71,89Z"/><path class="cls-2" d="M6.62,86.86a.84.84,0,0,0,.52-.2l1.57-1.5a.76.76,0,1,0-1-1.1l-1.48,1.5a.79.79,0,0,0-.05,1.1C6.33,86.76,6.42,86.86,6.62,86.86Z"/><path class="cls-2" d="M17.6,13.67a4.72,4.72,0,0,0,4.79-4.05,4.09,4.09,0,0,0-4.31-4.06,4.73,4.73,0,0,0-4.79,4.06A4.09,4.09,0,0,0,17.6,13.67Zm1.21-6.61a2.08,2.08,0,0,1,2.08,2.2,2.36,2.36,0,0,1-2.31,2.2,2.09,2.09,0,0,1-2.09-2.2A2.37,2.37,0,0,1,18.81,7.06Z"/><path class="cls-2" d="M104.23,119.26a4,4,0,0,0-3.9,3.7,3.53,3.53,0,0,0,3.51,3.7,4,4,0,0,0,3.89-3.7A3.52,3.52,0,0,0,104.23,119.26Zm-.31,5.9a2.09,2.09,0,0,1-2.09-2.2,2.38,2.38,0,0,1,2.32-2.2,2.08,2.08,0,0,1,2.08,2.2A2.36,2.36,0,0,1,103.92,125.16Z"/><path class="cls-2" d="M83.17,107a.79.79,0,0,0,1-.1l6.63-6.3a.79.79,0,0,0,.15-1l-5.71-7.5a40.26,40.26,0,0,0,7.89-17l9.76-1a.79.79,0,0,0,.73-.7l.47-8.9a.64.64,0,0,0-.66-.7l-9.65-1a38.21,38.21,0,0,0-2.65-10.5,19.49,19.49,0,0,0,6,.5L98.39,57a.72.72,0,0,0,.68.5h.2l4.35-1.1a.9.9,0,0,0,.65-.8l-.47-4.4a21.64,21.64,0,0,0,7.27-5.2l4,1.9a.8.8,0,0,0,1-.3l2.5-3.8a.75.75,0,0,0-.14-1L115,40.06a19.93,19.93,0,0,0,1.75-8.6L121,30a.75.75,0,0,0,.54-.9l-.88-4.2a.78.78,0,0,0-.76-.6l-4.44.7a18.64,18.64,0,0,0-4.83-7l2.11-4.1a.75.75,0,0,0-.25-1l-3.68-2.3a.8.8,0,0,0-1,.2l-2.89,3.6a19,19,0,0,0-8.53-1.3l-1.28-4.2a.68.68,0,0,0-.87-.5l-4.56,1.2a.9.9,0,0,0-.65.8l.47,4.4A21.64,21.64,0,0,0,82.23,20l-4-1.9a.81.81,0,0,0-1,.3l-2.39,3.8a.75.75,0,0,0,.14,1l3.46,2.7a21.41,21.41,0,0,0-1.65,8.6l-.81.3A37,37,0,0,0,62.61,30l-.49-9.7a.71.71,0,0,0-.67-.7h-8.9a.72.72,0,0,0-.73.7L50.31,30a42.66,42.66,0,0,0-17.37,7l-7.18-6.1a.79.79,0,0,0-1,.1l-6.63,6.3a.79.79,0,0,0-.15,1l5.71,7.5a40.26,40.26,0,0,0-7.89,17L6,63.76a.8.8,0,0,0-.74.7l-.47,8.9a.65.65,0,0,0,.67.7l9.64,1a38.37,38.37,0,0,0,6.11,17l-6.49,7.5a.75.75,0,0,0,.05,1l6,6.3a.75.75,0,0,0,1,.1l7.82-6.1a36,36,0,0,0,16.63,7l.5,9.7a.7.7,0,0,0,.66.7h8.9a.74.74,0,0,0,.74-.7l1.5-9.7a42.66,42.66,0,0,0,17.37-7ZM77.43,36.11a.82.82,0,0,0,.53-.78,18.78,18.78,0,0,1,1.74-8.81.89.89,0,0,0-.15-.88l-3.3-2.54,1.61-2.54,3.83,1.85a.77.77,0,0,0,.89-.19A18.59,18.59,0,0,1,90,16.94a.92.92,0,0,0,.53-.78L90.19,12l2.89-.68,1.26,4a.73.73,0,0,0,.76.48A17.63,17.63,0,0,1,103.87,17a1,1,0,0,0,.9-.2l2.73-3.42L110,15l-2.07,3.91a.73.73,0,0,0,.15.88A15.56,15.56,0,0,1,113,26.91a.81.81,0,0,0,.76.49l4.25-.58.54,2.83-4.1,1.47a.82.82,0,0,0-.53.78,18.39,18.39,0,0,1-1.74,8.8.9.9,0,0,0,.15.89l3.3,2.54-1.71,2.54-3.83-1.86a.76.76,0,0,0-.89.2,18,18,0,0,1-7.45,5.28.92.92,0,0,0-.53.78l.37,4.21L98.68,56l-1.26-4a.7.7,0,0,0-.66-.49h-.1a17.21,17.21,0,0,1-7.42-.78c-.48-.19-1-.29-1.35-.49a1,1,0,0,0-.9.2l-2.73,3.42-2.48-1.47,2.07-3.91a.71.71,0,0,0-.15-.88,15.56,15.56,0,0,1-4.92-7.14.84.84,0,0,0-.76-.49l-4.36.59-.53-2.84ZM57,106.61a.7.7,0,0,0-.63.69l-1.48,9.46H47.48L47,107.3a.79.79,0,0,0-.56-.69,35.65,35.65,0,0,1-16.74-7.1.73.73,0,0,0-.89,0l-7.59,6-4.94-5.23L22.65,93a.76.76,0,0,0,.05-.89,35.73,35.73,0,0,1-6.28-17.26.63.63,0,0,0-.66-.59l-9.39-1,.39-7.39,9.49-1A.88.88,0,0,0,17,64.3a40,40,0,0,1,8-17.16.74.74,0,0,0,.05-.88l-5.62-7.4,5.49-5.23,7,6a.73.73,0,0,0,.89,0,39.62,39.62,0,0,1,17.49-7.1.7.7,0,0,0,.62-.69l1.48-9.47h7.38l.49,9.47a.79.79,0,0,0,.55.69,34.48,34.48,0,0,1,12.09,4l-1.61.59a.76.76,0,0,0-.54.89l.87,4.14a.76.76,0,0,0,.75.59l4.37-.69A18.44,18.44,0,0,0,81.41,49l-2.08,4a.75.75,0,0,0,.25,1l3.62,2.16a.79.79,0,0,0,1-.19L87,52.47c.19.1.48.19.67.29a35.81,35.81,0,0,1,3,11.64.62.62,0,0,0,.66.59l9.39,1-.39,7.39-9.49,1a.9.9,0,0,0-.72.59A36.69,36.69,0,0,1,82.31,92a.74.74,0,0,0,0,.89l5.62,7.3-5.49,5.22-7-6a.72.72,0,0,0-.88,0A39.69,39.69,0,0,1,57,106.61Z"/><path class="cls-2" d="M31,18.36c.2,0,.3,0,.41-.1,12-8.5,25.37-12.7,36.3-11.5l-6.49,3.7a.73.73,0,0,0-.35,1,.79.79,0,0,0,.68.4.6.6,0,0,0,.4-.1L70.41,7h0c.11-.1.21-.1.21-.2v-.1c0-.1.1-.1.11-.2v-.1h0V6c0-.1-.09-.1-.19-.2h0L63.16.26a.83.83,0,0,0-1.11.2.8.8,0,0,0,.15,1.1l5.1,3.8c-11.25-1.1-24.67,3.2-36.62,11.7a.91.91,0,0,0-.25,1.1A1,1,0,0,0,31,18.36Z"/><path class="cls-2" d="M108.49,101a.8.8,0,0,0-.15-1.1.83.83,0,0,0-1.11.2c-9,11.6-20.72,19.6-31.64,21.8l5.18-5.4a.7.7,0,0,0,0-1.1.71.71,0,0,0-1.1.1l-6.77,7h0c-.11.1-.11.2-.22.3v.4h0v.1a.3.3,0,0,0,.09.2l.09.1c.1.1.2.1.29.2h0l8.85,2.9h.2a.81.81,0,0,0,.73-.5.68.68,0,0,0-.46-.9l-6.09-2C87.75,120.66,99.38,112.56,108.49,101Z"/><path class="cls-2" d="M95.87,45.86A13.79,13.79,0,0,0,109.45,33a12.14,12.14,0,0,0-12.22-12.9A13.79,13.79,0,0,0,83.65,33,12.14,12.14,0,0,0,95.87,45.86Zm.9-23.47a10.34,10.34,0,0,1,10.47,11,11.74,11.74,0,0,1-11.62,11,10.34,10.34,0,0,1-10.47-11A11.89,11.89,0,0,1,96.77,22.39Z"/></svg>