<svg id="Layer_1" data-name="Layer 1" xmlns="http://www.w3.org/2000/svg" viewBox="0 0 110.04 106.95"><defs><style>.cls-1{fill:#6e6e6e;}.cls-2{fill:#3baccf;}</style></defs><title>Artboard 1</title><path class="cls-1" d="M46.4,19.38a.76.76,0,0,1-.5-.2L44.6,18a.78.78,0,0,1,1.1-1.1l1.2,1.2a.78.78,0,0,1,0,1.1A.55.55,0,0,1,46.4,19.38Z"/><path class="cls-1" d="M50.2,23.28a.76.76,0,0,1-.5-.2l-1.2-1.2a.78.78,0,1,1,1.1-1.1L50.8,22a.78.78,0,0,1,0,1.1A1.42,1.42,0,0,1,50.2,23.28Z"/><path class="cls-1" d="M45.2,23.28a.76.76,0,0,1-.5-.2.78.78,0,0,1,0-1.1l1.2-1.2a.78.78,0,1,1,1.1,1.1l-1.2,1.2A1.42,1.42,0,0,1,45.2,23.28Z"/><path class="cls-1" d="M49,19.38a.76.76,0,0,1-.5-.2.78.78,0,0,1,0-1.1l1.2-1.2A.78.78,0,0,1,50.8,18l-1.3,1.2C49.4,19.38,49.2,19.38,49,19.38Z"/><path class="cls-1" d="M94.6,8.88a.76.76,0,0,1-.5-.2l-1.2-1.2A.78.78,0,1,1,94,6.38l1.2,1.2a.78.78,0,0,1,0,1.1A1.42,1.42,0,0,1,94.6,8.88Z"/><path class="cls-1" d="M98.5,12.68a.76.76,0,0,1-.5-.2l-1.2-1.2a.78.78,0,1,1,1.1-1.1l1.2,1.2a.78.78,0,0,1,0,1.1A.73.73,0,0,1,98.5,12.68Z"/><path class="cls-1" d="M93.5,12.68a.76.76,0,0,1-.5-.2.78.78,0,0,1,0-1.1l1.2-1.2a.78.78,0,0,1,1.1,1.1l-1.2,1.2A1,1,0,0,1,93.5,12.68Z"/><path class="cls-1" d="M97.3,8.88a.76.76,0,0,1-.5-.2.78.78,0,0,1,0-1.1L98,6.38a.78.78,0,1,1,1.1,1.1l-1.2,1.2A1.42,1.42,0,0,1,97.3,8.88Z"/><path class="cls-1" d="M77.7,54.28a.76.76,0,0,1-.5-.2L76,52.88a.78.78,0,1,1,1.1-1.1L78.3,53a.78.78,0,0,1,0,1.1A1.42,1.42,0,0,1,77.7,54.28Z"/><path class="cls-1" d="M81.5,58.08a.76.76,0,0,1-.5-.2l-1.2-1.2a.78.78,0,1,1,1.1-1.1l1.2,1.2a.78.78,0,0,1,0,1.1A.73.73,0,0,1,81.5,58.08Z"/><path class="cls-1" d="M76.5,58.08a.76.76,0,0,1-.5-.2.78.78,0,0,1,0-1.1l1.2-1.2a.78.78,0,1,1,1.1,1.1l-1.2,1.2A.73.73,0,0,1,76.5,58.08Z"/><path class="cls-1" d="M80.3,54.28a.76.76,0,0,1-.5-.2.78.78,0,0,1,0-1.1l1.2-1.2a.78.78,0,1,1,1.1,1.1l-1.2,1.2A1.42,1.42,0,0,1,80.3,54.28Z"/><path class="cls-1" d="M98.9,73.58a.76.76,0,0,1-.5-.2l-1.2-1.2a.78.78,0,1,1,1.1-1.1l1.2,1.2a.78.78,0,0,1,0,1.1A1.42,1.42,0,0,1,98.9,73.58Z"/><path class="cls-1" d="M102.8,77.38a.76.76,0,0,1-.5-.2L101.1,76a.78.78,0,0,1,1.1-1.1l1.2,1.2a.78.78,0,0,1,0,1.1A3.93,3.93,0,0,1,102.8,77.38Z"/><path class="cls-1" d="M97.7,77.38a.76.76,0,0,1-.5-.2.78.78,0,0,1,0-1.1l1.2-1.2A.78.78,0,0,1,99.5,76l-1.2,1.2A1.42,1.42,0,0,1,97.7,77.38Z"/><path class="cls-1" d="M101.6,73.58a.76.76,0,0,1-.5-.2.78.78,0,0,1,0-1.1l1.2-1.2a.78.78,0,0,1,1.1,1.1l-1.2,1.2A1.42,1.42,0,0,1,101.6,73.58Z"/><path class="cls-1" d="M53.4,78.38a.76.76,0,0,1-.5-.2L51.7,77a.78.78,0,0,1,1.1-1.1l1.2,1.2a.78.78,0,0,1,0,1.1A1.42,1.42,0,0,1,53.4,78.38Z"/><path class="cls-1" d="M57.2,82.18a.76.76,0,0,1-.5-.2l-1.2-1.2a.78.78,0,1,1,1.1-1.1l1.2,1.2a.78.78,0,0,1,0,1.1A.73.73,0,0,1,57.2,82.18Z"/><path class="cls-1" d="M52.2,82.18a.76.76,0,0,1-.5-.2.78.78,0,0,1,0-1.1l1.2-1.2a.78.78,0,1,1,1.1,1.1L52.7,82C52.6,82.18,52.4,82.18,52.2,82.18Z"/><path class="cls-1" d="M56,78.38a.76.76,0,0,1-.5-.2.78.78,0,0,1,0-1.1l1.2-1.2A.78.78,0,0,1,57.8,77l-1.2,1.2A1.42,1.42,0,0,1,56,78.38Z"/><path class="cls-1" d="M30.7,56.78a.76.76,0,0,1-.5-.2L29,55.38a.78.78,0,1,1,1.1-1.1l1.2,1.2a.78.78,0,0,1,0,1.1A1.42,1.42,0,0,1,30.7,56.78Z"/><path class="cls-1" d="M34.6,60.68a.76.76,0,0,1-.5-.2l-1.2-1.2a.78.78,0,0,1,1.1-1.1l1.2,1.2a.78.78,0,0,1,0,1.1A1.42,1.42,0,0,1,34.6,60.68Z"/><path class="cls-1" d="M29.5,60.68a.76.76,0,0,1-.5-.2.78.78,0,0,1,0-1.1l1.2-1.2a.78.78,0,0,1,1.1,1.1l-1.2,1.2A1.42,1.42,0,0,1,29.5,60.68Z"/><path class="cls-1" d="M33.4,56.78a.76.76,0,0,1-.5-.2.78.78,0,0,1,0-1.1l1.2-1.2a.78.78,0,1,1,1.1,1.1L34,56.58A1.42,1.42,0,0,1,33.4,56.78Z"/><path class="cls-1" d="M3.7,29a.76.76,0,0,1-.5-.2L2,27.58a.78.78,0,0,1,1.1-1.1l1.2,1.2a.78.78,0,0,1,0,1.1A1.42,1.42,0,0,1,3.7,29Z"/><path class="cls-1" d="M7.6,32.78a.76.76,0,0,1-.5-.2l-1.2-1.2A.78.78,0,1,1,7,30.28l1.2,1.2a.78.78,0,0,1,0,1.1A.73.73,0,0,1,7.6,32.78Z"/><path class="cls-1" d="M2.5,32.78a.76.76,0,0,1-.5-.2.78.78,0,0,1,0-1.1l1.2-1.2a.78.78,0,1,1,1.1,1.1l-1.2,1.2A.73.73,0,0,1,2.5,32.78Z"/><path class="cls-1" d="M6.4,29a.76.76,0,0,1-.5-.2.78.78,0,0,1,0-1.1l1.2-1.2a.78.78,0,0,1,1.1,1.1L7,28.78A1.42,1.42,0,0,1,6.4,29Z"/><path class="cls-1" d="M17.6,66.38a.79.79,0,0,1-.8-.8V59a.8.8,0,0,1,1.6,0v6.6A.74.74,0,0,1,17.6,66.38Z"/><path class="cls-1" d="M17.6,73.28a.79.79,0,0,1-.8-.8v-3.2a.8.8,0,0,1,1.6,0v3.2A.74.74,0,0,1,17.6,73.28Z"/><path class="cls-1" d="M94.8,57.78A.79.79,0,0,1,94,57v-6.6a.8.8,0,1,1,1.6,0V57A.79.79,0,0,1,94.8,57.78Z"/><path class="cls-1" d="M94.8,64.68a.79.79,0,0,1-.8-.8v-3.2a.8.8,0,1,1,1.6,0v3.2A.79.79,0,0,1,94.8,64.68Z"/><path class="cls-1" d="M22.2,44.78a3,3,0,1,1,3-3A3.08,3.08,0,0,1,22.2,44.78Zm0-4.5a1.5,1.5,0,1,0,1.5,1.5A1.47,1.47,0,0,0,22.2,40.28Z"/><path class="cls-1" d="M65.2,37.68a3,3,0,1,1,3-3A2.95,2.95,0,0,1,65.2,37.68Zm0-4.5a1.5,1.5,0,1,0,1.5,1.5A1.47,1.47,0,0,0,65.2,33.18Z"/><path class="cls-1" d="M63,102.78a3,3,0,1,1,3-3A3.08,3.08,0,0,1,63,102.78Zm0-4.6a1.5,1.5,0,1,0,1.5,1.5A1.54,1.54,0,0,0,63,98.18Z"/><path class="cls-1" d="M79,14.08H70.8a.8.8,0,1,1,0-1.6H79a.8.8,0,0,1,0,1.6Z"/><path class="cls-1" d="M84.3,14.08H81.7a.8.8,0,1,1,0-1.6h2.6a.8.8,0,0,1,0,1.6Z"/><path class="cls-1" d="M84.3,16.88H78.6a.8.8,0,1,1,0-1.6h5.7a.8.8,0,0,1,0,1.6Z"/><path class="cls-1" d="M76.2,16.88H74.4a.8.8,0,0,1,0-1.6h1.8a.79.79,0,0,1,.8.8C76.9,16.58,76.6,16.88,76.2,16.88Z"/><path class="cls-1" d="M45.7,93.18H37.5a.79.79,0,0,1-.8-.8.74.74,0,0,1,.8-.8h8.2a.8.8,0,0,1,0,1.6Z"/><path class="cls-1" d="M34.9,93.18H32.3a.79.79,0,0,1-.8-.8.74.74,0,0,1,.8-.8h2.6a.8.8,0,0,1,0,1.6Z"/><path class="cls-1" d="M37.9,96H32.2a.79.79,0,0,1-.8-.8.74.74,0,0,1,.8-.8h5.7a.8.8,0,0,1,0,1.6Z"/><path class="cls-1" d="M42.2,96H40.4a.79.79,0,0,1-.8-.8.74.74,0,0,1,.8-.8h1.8a.8.8,0,1,1,0,1.6Z"/><path class="cls-1" d="M19.9,25.68a11,11,0,1,1,11-11A11,11,0,0,1,19.9,25.68Zm0-20.4a9.5,9.5,0,1,0,9.5,9.5A9.56,9.56,0,0,0,19.9,5.28Z"/><path class="cls-1" d="M19.9,20.78a6,6,0,1,1,6-6A6,6,0,0,1,19.9,20.78Zm0-10.6a4.5,4.5,0,1,0,4.5,4.5A4.48,4.48,0,0,0,19.9,10.18Z"/><path class="cls-1" d="M96.2,43.28a11,11,0,1,1,11-11A11,11,0,0,1,96.2,43.28Zm0-20.5a9.5,9.5,0,1,0,9.5,9.5A9.56,9.56,0,0,0,96.2,22.78Z"/><path class="cls-1" d="M96.2,38.28a6,6,0,1,1,6-6A6,6,0,0,1,96.2,38.28Zm0-10.5a4.5,4.5,0,1,0,4.5,4.5A4.48,4.48,0,0,0,96.2,27.78Z"/><path class="cls-1" d="M12.8,106.18a11,11,0,1,1,11-11A11,11,0,0,1,12.8,106.18Zm0-20.4a9.5,9.5,0,1,0,9.5,9.5A9.56,9.56,0,0,0,12.8,85.78Z"/><path class="cls-1" d="M12.8,101.28a6,6,0,1,1,6-6A6,6,0,0,1,12.8,101.28Zm0-10.6a4.5,4.5,0,1,0,4.5,4.5A4.48,4.48,0,0,0,12.8,90.68Z"/><path class="cls-1" d="M82,101A11,11,0,1,1,93,90,11.1,11.1,0,0,1,82,101Zm0-20.5A9.5,9.5,0,1,0,91.5,90,9.56,9.56,0,0,0,82,80.48Z"/><path class="cls-1" d="M82,96a6,6,0,1,1,6-6A6,6,0,0,1,82,96Zm0-10.5A4.5,4.5,0,1,0,86.5,90,4.48,4.48,0,0,0,82,85.48Z"/><path class="cls-1" d="M74.2,79.68a.86.86,0,0,1-.6-.3l-.3-.4a.78.78,0,1,1,1.2-1l.3.4a.79.79,0,0,1-.1,1.1A1.69,1.69,0,0,1,74.2,79.68Z"/><path class="cls-1" d="M71.8,76.88a.86.86,0,0,1-.6-.3l-.7-.8a.78.78,0,1,1,1.2-1l.7.8a.79.79,0,0,1-.1,1.1A.76.76,0,0,1,71.8,76.88Zm-2.7-3.2a.86.86,0,0,1-.6-.3l-.7-.8a.78.78,0,1,1,1.2-1l.7.8a.79.79,0,0,1-.1,1.1C69.4,73.58,69.3,73.68,69.1,73.68Z"/><path class="cls-1" d="M66.4,70.48a.86.86,0,0,1-.6-.3l-.3-.4a.78.78,0,0,1,1.2-1l.3.4a.79.79,0,0,1-.1,1.1C66.7,70.38,66.6,70.48,66.4,70.48Z"/><path class="cls-1" d="M47.7,48.88a.86.86,0,0,1-.6-.3l-.3-.4a.78.78,0,1,1,1.2-1l.3.4a.79.79,0,0,1-.1,1.1A.55.55,0,0,1,47.7,48.88Z"/><path class="cls-1" d="M45.2,46.18a.86.86,0,0,1-.6-.3l-.7-.8a.78.78,0,1,1,1.2-1l.7.8a.79.79,0,0,1-.1,1.1A.76.76,0,0,1,45.2,46.18ZM42.4,43a.86.86,0,0,1-.6-.3l-.7-.8a.78.78,0,0,1,1.2-1l.7.8a.79.79,0,0,1-.1,1.1A.76.76,0,0,1,42.4,43Zm-2.8-3.3a.86.86,0,0,1-.6-.3l-.7-.8a.78.78,0,1,1,1.2-1l.7.8a.79.79,0,0,1-.1,1.1C40,39.68,39.8,39.68,39.6,39.68Zm-2.8-3.2a.86.86,0,0,1-.6-.3l-.7-.7a.78.78,0,0,1,1.2-1l.7.8a.79.79,0,0,1-.1,1.1A.75.75,0,0,1,36.8,36.48ZM34,33.28a.86.86,0,0,1-.6-.3l-.7-.8a.78.78,0,0,1,1.2-1l.7.8a.79.79,0,0,1-.1,1.1A.55.55,0,0,1,34,33.28Zm-2.8-3.2a.86.86,0,0,1-.6-.3l-.7-.8a.78.78,0,1,1,1.2-1l.7.8a.79.79,0,0,1-.1,1.1A.65.65,0,0,1,31.2,30.08Z"/><path class="cls-1" d="M28.4,26.88a.86.86,0,0,1-.6-.3l-.3-.3a.78.78,0,0,1,1.2-1l.3.4a.79.79,0,0,1-.1,1.1A1.09,1.09,0,0,1,28.4,26.88Z"/><path class="cls-1" d="M57.2,70.08a11.21,11.21,0,0,1-11-11,11,11,0,0,1,3.8-8.3,10.92,10.92,0,0,1,15.8,1.5,11,11,0,0,1,2.4,6.8,11.05,11.05,0,0,1-11,11Zm0-20.5A8.94,8.94,0,0,0,51,52a9.43,9.43,0,0,0-3.3,7.2,9,9,0,0,0,2,5.7,9.33,9.33,0,0,0,7.6,3.8,9.89,9.89,0,0,0,6.3-2.4,9.28,9.28,0,0,0,3.2-7.1,9.77,9.77,0,0,0-2-5.9A9.52,9.52,0,0,0,57.2,49.58Z"/><path class="cls-1" d="M45.7,68.58a.86.86,0,0,1-.6-.3.79.79,0,0,1,.1-1.1l.4-.3a.78.78,0,0,1,1,1.2l-.4.3A.55.55,0,0,1,45.7,68.58Z"/><path class="cls-1" d="M25.9,84a.86.86,0,0,1-.6-.3.79.79,0,0,1,.1-1.1l.8-.6a.78.78,0,0,1,1,1.2l-.8.6C26.2,83.88,26.1,84,25.9,84Zm3.3-2.6a.86.86,0,0,1-.6-.3.79.79,0,0,1,.1-1.1l.8-.6a.78.78,0,0,1,1,1.2l-.8.6A.55.55,0,0,1,29.2,81.38Zm3.3-2.5a.86.86,0,0,1-.6-.3.79.79,0,0,1,.1-1.1l.8-.6a.78.78,0,0,1,1,1.2l-.8.6C32.8,78.78,32.7,78.88,32.5,78.88Zm3.3-2.6a.86.86,0,0,1-.6-.3.79.79,0,0,1,.1-1.1l.8-.6a.78.78,0,0,1,1,1.2l-.8.6A.55.55,0,0,1,35.8,76.28Zm3.3-2.5a.86.86,0,0,1-.6-.3.79.79,0,0,1,.1-1.1l.8-.6a.78.78,0,0,1,1,1.2l-.8.6C39.4,73.68,39.3,73.78,39.1,73.78Zm3.3-2.6a.86.86,0,0,1-.6-.3.79.79,0,0,1,.1-1.1l.8-.6a.78.78,0,1,1,1,1.2l-.8.6C42.7,71.08,42.6,71.18,42.4,71.18Z"/><path class="cls-1" d="M23,86.18a.86.86,0,0,1-.6-.3.79.79,0,0,1,.1-1.1l.4-.3a.78.78,0,0,1,1,1.2l-.4.4A.75.75,0,0,1,23,86.18Z"/><path class="cls-1" d="M84.4,38.68a.86.86,0,0,1-.6-.3.79.79,0,0,1,.1-1.1l.4-.3a.78.78,0,1,1,1,1.2l-.4.3A.76.76,0,0,1,84.4,38.68Z"/><path class="cls-1" d="M71.1,48.88a.86.86,0,0,1-.6-.3.79.79,0,0,1,.1-1.1l.9-.5a.78.78,0,1,1,1,1.2l-.8.6A1.49,1.49,0,0,1,71.1,48.88Zm3.3-2.5a.86.86,0,0,1-.6-.3.79.79,0,0,1,.1-1.1l.8-.6a.78.78,0,0,1,1,1.2l-.8.6A.76.76,0,0,1,74.4,46.38Zm3.4-2.6a.86.86,0,0,1-.6-.3.79.79,0,0,1,.1-1.1l.8-.6a.78.78,0,1,1,1,1.2l-.8.6A.65.65,0,0,1,77.8,43.78Zm3.3-2.6a.86.86,0,0,1-.6-.3.79.79,0,0,1,.1-1.1l.8-.6a.78.78,0,1,1,1,1.2l-.8.6A.55.55,0,0,1,81.1,41.18Z"/><path class="cls-1" d="M68.2,51.18a.86.86,0,0,1-.6-.3.79.79,0,0,1,.1-1.1l.4-.3a.78.78,0,1,1,1,1.2l-.4.3C68.5,51.08,68.4,51.18,68.2,51.18Z"/><path class="cls-2" d="M49.26,17.38a.72.72,0,0,1-.49-.2L47.53,16a.8.8,0,0,1,1.16-1.1l1.14,1.2a.79.79,0,0,1-.06,1.1A.58.58,0,0,1,49.26,17.38Z"/><path class="cls-2" d="M52.85,21.28a.69.69,0,0,1-.48-.2l-1.14-1.2a.8.8,0,0,1,1.16-1.1L53.52,20a.79.79,0,0,1-.05,1.1A1.55,1.55,0,0,1,52.85,21.28Z"/><path class="cls-2" d="M47.85,21.28a.69.69,0,0,1-.48-.2.79.79,0,0,1,.05-1.1l1.27-1.2a.78.78,0,0,1,1.1,0,.8.8,0,0,1-.06,1.1l-1.26,1.2A1.55,1.55,0,0,1,47.85,21.28Z"/><path class="cls-2" d="M51.86,17.38a.72.72,0,0,1-.49-.2.79.79,0,0,1,.06-1.1l1.26-1.2a.76.76,0,1,1,1,1.1l-1.36,1.2C52.26,17.38,52.06,17.38,51.86,17.38Z"/><path class="cls-2" d="M98,6.88a.72.72,0,0,1-.49-.2l-1.14-1.2a.8.8,0,0,1,1.16-1.1l1.14,1.2a.79.79,0,0,1-.06,1.1A1.51,1.51,0,0,1,98,6.88Z"/><path class="cls-2" d="M101.71,10.68a.74.74,0,0,1-.49-.2l-1.14-1.2a.8.8,0,0,1,.06-1.1.78.78,0,0,1,1.1,0l1.14,1.2a.79.79,0,0,1-.06,1.1A.77.77,0,0,1,101.71,10.68Z"/><path class="cls-2" d="M96.71,10.68a.74.74,0,0,1-.49-.2.79.79,0,0,1,.06-1.1l1.26-1.2a.76.76,0,1,1,1,1.1l-1.26,1.2A1,1,0,0,1,96.71,10.68Z"/><path class="cls-2" d="M100.71,6.88a.72.72,0,0,1-.49-.2.79.79,0,0,1,.06-1.1l1.26-1.2a.76.76,0,1,1,1,1.1l-1.26,1.2A1.51,1.51,0,0,1,100.71,6.88Z"/><path class="cls-2" d="M78.73,52.28a.74.74,0,0,1-.49-.2l-1.14-1.2a.8.8,0,0,1,.06-1.1.78.78,0,0,1,1.1,0L79.4,51a.79.79,0,0,1-.06,1.1A1.46,1.46,0,0,1,78.73,52.28Z"/><path class="cls-2" d="M82.33,56.08a.74.74,0,0,1-.49-.2l-1.14-1.2a.8.8,0,0,1,.06-1.1.78.78,0,0,1,1.1,0L83,54.78a.79.79,0,0,1-.06,1.1A.77.77,0,0,1,82.33,56.08Z"/><path class="cls-2" d="M77.33,56.08a.74.74,0,0,1-.49-.2.79.79,0,0,1,.06-1.1l1.26-1.2a.76.76,0,1,1,1,1.1l-1.26,1.2A.77.77,0,0,1,77.33,56.08Z"/><path class="cls-2" d="M81.33,52.28a.74.74,0,0,1-.49-.2A.79.79,0,0,1,80.9,51l1.26-1.2a.76.76,0,1,1,1,1.1l-1.26,1.2A1.46,1.46,0,0,1,81.33,52.28Z"/><path class="cls-2" d="M98.92,71.58a.72.72,0,0,1-.49-.2l-1.14-1.2a.8.8,0,0,1,1.16-1.1l1.14,1.2a.79.79,0,0,1-.06,1.1A1.51,1.51,0,0,1,98.92,71.58Z"/><path class="cls-2" d="M102.62,75.38a.72.72,0,0,1-.49-.2L101,74a.8.8,0,0,1,1.16-1.1l1.14,1.2a.79.79,0,0,1-.06,1.1A4.31,4.31,0,0,1,102.62,75.38Z"/><path class="cls-2" d="M97.52,75.38a.72.72,0,0,1-.49-.2.79.79,0,0,1,.06-1.1l1.26-1.2a.76.76,0,1,1,1,1.1l-1.26,1.2A1.51,1.51,0,0,1,97.52,75.38Z"/><path class="cls-2" d="M101.62,71.58a.72.72,0,0,1-.49-.2.79.79,0,0,1,.06-1.1l1.26-1.2a.76.76,0,1,1,1,1.1l-1.26,1.2A1.51,1.51,0,0,1,101.62,71.58Z"/><path class="cls-2" d="M53.17,76.38a.72.72,0,0,1-.49-.2L51.54,75a.8.8,0,0,1,1.16-1.1l1.14,1.2a.8.8,0,0,1-.06,1.1A1.51,1.51,0,0,1,53.17,76.38Z"/><path class="cls-2" d="M56.77,80.18a.72.72,0,0,1-.49-.2l-1.14-1.2a.8.8,0,0,1,1.16-1.1l1.14,1.2a.8.8,0,0,1-.06,1.1A.77.77,0,0,1,56.77,80.18Z"/><path class="cls-2" d="M51.77,80.18a.72.72,0,0,1-.49-.2.78.78,0,0,1,.06-1.1l1.26-1.2a.76.76,0,1,1,1,1.1L52.28,80C52.17,80.18,52,80.18,51.77,80.18Z"/><path class="cls-2" d="M55.77,76.38a.72.72,0,0,1-.49-.2.78.78,0,0,1,.06-1.1l1.26-1.2a.76.76,0,1,1,1,1.1l-1.26,1.2A1.51,1.51,0,0,1,55.77,76.38Z"/><path class="cls-2" d="M31.6,54.78a.72.72,0,0,1-.49-.2L30,53.38a.8.8,0,0,1,1.16-1.1l1.14,1.2a.79.79,0,0,1-.06,1.1A1.51,1.51,0,0,1,31.6,54.78Z"/><path class="cls-2" d="M35.29,58.68a.69.69,0,0,1-.48-.2l-1.14-1.2a.8.8,0,0,1,1.16-1.1L36,57.38a.79.79,0,0,1-.05,1.1A1.55,1.55,0,0,1,35.29,58.68Z"/><path class="cls-2" d="M30.19,58.68a.69.69,0,0,1-.48-.2.79.79,0,0,1,.05-1.1L31,56.18a.78.78,0,0,1,1.1,0,.8.8,0,0,1-.06,1.1l-1.26,1.2A1.55,1.55,0,0,1,30.19,58.68Z"/><path class="cls-2" d="M34.3,54.78a.72.72,0,0,1-.49-.2.79.79,0,0,1,.06-1.1l1.26-1.2a.76.76,0,1,1,1,1.1l-1.26,1.2A1.51,1.51,0,0,1,34.3,54.78Z"/><path class="cls-2" d="M6.06,27a.72.72,0,0,1-.49-.2l-1.14-1.2a.8.8,0,0,1,1.16-1.1l1.13,1.2a.79.79,0,0,1,0,1.1A1.51,1.51,0,0,1,6.06,27Z"/><path class="cls-2" d="M9.76,30.78a.72.72,0,0,1-.49-.2l-1.14-1.2a.8.8,0,0,1,1.16-1.1l1.14,1.2a.8.8,0,0,1-.06,1.1A.77.77,0,0,1,9.76,30.78Z"/><path class="cls-2" d="M4.66,30.78a.72.72,0,0,1-.49-.2.78.78,0,0,1,.06-1.1l1.26-1.2a.76.76,0,1,1,1,1.1l-1.26,1.2A.77.77,0,0,1,4.66,30.78Z"/><path class="cls-2" d="M8.76,27a.72.72,0,0,1-.49-.2.79.79,0,0,1,.05-1.1l1.27-1.2a.76.76,0,1,1,1,1.1l-1.26,1.2A1.51,1.51,0,0,1,8.76,27Z"/><path class="cls-2" d="M18,64.38a.74.74,0,0,1-.76-.8l.34-6.6a.85.85,0,0,1,.85-.8.73.73,0,0,1,.75.8l-.34,6.6A.78.78,0,0,1,18,64.38Z"/><path class="cls-2" d="M17.63,71.28a.73.73,0,0,1-.75-.8l.16-3.2a.85.85,0,0,1,.85-.8.73.73,0,0,1,.75.8l-.16,3.2A.79.79,0,0,1,17.63,71.28Z"/><path class="cls-2" d="M95.65,55.78a.74.74,0,0,1-.76-.8l.34-6.6a.85.85,0,0,1,.85-.8.73.73,0,0,1,.75.8L96.49,55A.84.84,0,0,1,95.65,55.78Z"/><path class="cls-2" d="M95.29,62.68a.74.74,0,0,1-.76-.8l.16-3.2a.85.85,0,0,1,.85-.8.73.73,0,0,1,.75.8l-.16,3.2A.84.84,0,0,1,95.29,62.68Z"/><path class="cls-2" d="M24.16,42.78a3.18,3.18,0,0,1-3.27-3.46,3.62,3.62,0,0,1,3.63-3.46,3.2,3.2,0,0,1,3.28,3.46A3.79,3.79,0,0,1,24.16,42.78Zm-.2-4.5a1.63,1.63,0,0,0-1.57,1.5,1.44,1.44,0,0,0,1.42,1.5,1.65,1.65,0,0,0,1.58-1.5A1.39,1.39,0,0,0,24,38.28Z"/><path class="cls-2" d="M67.8,35.68a3.45,3.45,0,0,1-3.54-3.74,3.9,3.9,0,0,1,3.93-3.73,3.44,3.44,0,0,1,3.54,3.73A3.91,3.91,0,0,1,67.8,35.68Zm-.46-4.5a1.64,1.64,0,0,0-1.58,1.5,1.44,1.44,0,0,0,1.42,1.5,1.64,1.64,0,0,0,1.58-1.5A1.38,1.38,0,0,0,67.34,31.18Z"/><path class="cls-2" d="M61.49,100.78a2.77,2.77,0,0,1-2.84-3,3.13,3.13,0,0,1,3.15-3,2.78,2.78,0,0,1,2.85,3A3.29,3.29,0,0,1,61.49,100.78Zm.24-4.6a1.64,1.64,0,0,0-1.58,1.5,1.44,1.44,0,0,0,1.42,1.5,1.64,1.64,0,0,0,1.58-1.5A1.44,1.44,0,0,0,61.73,96.18Z"/><path class="cls-2" d="M82.14,12.08h-8.2a.74.74,0,0,1-.76-.8.84.84,0,0,1,.84-.8h8.2a.74.74,0,0,1,.76.8A.84.84,0,0,1,82.14,12.08Z"/><path class="cls-2" d="M87.44,12.08h-2.6a.74.74,0,0,1-.76-.8.84.84,0,0,1,.84-.8h2.6a.74.74,0,0,1,.76.8A.84.84,0,0,1,87.44,12.08Z"/><path class="cls-2" d="M87.29,14.88h-5.7a.75.75,0,0,1-.76-.8.84.84,0,0,1,.84-.8h5.7a.74.74,0,0,1,.76.8A.83.83,0,0,1,87.29,14.88Z"/><path class="cls-2" d="M79.19,14.88h-1.8a.75.75,0,0,1-.76-.8.84.84,0,0,1,.84-.8h1.8a.74.74,0,0,1,.76.8A.91.91,0,0,1,79.19,14.88Z"/><path class="cls-2" d="M44.69,91.18h-8.2a.75.75,0,0,1-.76-.8.79.79,0,0,1,.85-.8h8.2a.73.73,0,0,1,.75.8A.83.83,0,0,1,44.69,91.18Z"/><path class="cls-2" d="M33.89,91.18h-2.6a.75.75,0,0,1-.76-.8.79.79,0,0,1,.85-.8H34a.73.73,0,0,1,.75.8A.83.83,0,0,1,33.89,91.18Z"/><path class="cls-2" d="M36.74,94H31a.73.73,0,0,1-.75-.8.78.78,0,0,1,.84-.8h5.7a.75.75,0,0,1,.76.8A.85.85,0,0,1,36.74,94Z"/><path class="cls-2" d="M41,94h-1.8a.73.73,0,0,1-.75-.8.78.78,0,0,1,.84-.8h1.8a.75.75,0,0,1,.76.8A.85.85,0,0,1,41,94Z"/><path class="cls-2" d="M22.82,23.68A10.69,10.69,0,0,1,12,12.26,12.12,12.12,0,0,1,24,.85,10.68,10.68,0,0,1,34.83,12.26,12.13,12.13,0,0,1,22.82,23.68Zm.68-20.4a10.19,10.19,0,0,0-10,9.5,9,9,0,0,0,9,9.5,10.19,10.19,0,0,0,10-9.5A9,9,0,0,0,23.5,3.28Z"/><path class="cls-2" d="M23,18.78a5.94,5.94,0,0,1-6-6.3,6.73,6.73,0,0,1,6.63-6.3,5.94,5.94,0,0,1,6,6.3A6.74,6.74,0,0,1,23,18.78Zm.27-10.6a4.77,4.77,0,0,0-4.73,4.5,4.2,4.2,0,0,0,4.26,4.5,4.79,4.79,0,0,0,4.74-4.5A4.22,4.22,0,0,0,23.24,8.18Z"/><path class="cls-2" d="M97.81,41.28a10.31,10.31,0,0,1-10.43-11A11.69,11.69,0,0,1,99,19.28a10.3,10.3,0,0,1,10.42,11A11.69,11.69,0,0,1,97.81,41.28Zm.36-19.15A9.48,9.48,0,0,0,88.88,31a8.35,8.35,0,0,0,8.36,8.83A9.48,9.48,0,0,0,106.53,31,8.34,8.34,0,0,0,98.17,22.13Z"/><path class="cls-2" d="M98.07,36.28a5.66,5.66,0,0,1-5.69-6,6.43,6.43,0,0,1,6.32-6,5.64,5.64,0,0,1,5.68,6A6.41,6.41,0,0,1,98.07,36.28Zm0-9.37a4.18,4.18,0,0,0-4.14,3.93,3.69,3.69,0,0,0,3.73,3.94,4.19,4.19,0,0,0,4.14-3.94A3.69,3.69,0,0,0,98,26.91Z"/><path class="cls-2" d="M11.65,103.8a10.83,10.83,0,0,1-11-11.57A12.29,12.29,0,0,1,12.86,80.67a10.84,10.84,0,0,1,11,11.56A12.3,12.3,0,0,1,11.65,103.8Zm.53-19.4a9.19,9.19,0,0,0-9.3,9.06,9,9,0,0,0,9,9.5,9.19,9.19,0,0,0,9.3-9.06A9,9,0,0,0,12.18,84.4Z"/><path class="cls-2" d="M11.9,100.4a6.18,6.18,0,0,1-6.22-6.56,7,7,0,0,1,6.91-6.56,6.19,6.19,0,0,1,6.22,6.56A7,7,0,0,1,11.9,100.4Zm0-11.72a4.77,4.77,0,0,0-4.73,4.5,4.21,4.21,0,0,0,4.26,4.5,4.78,4.78,0,0,0,4.74-4.5A4.22,4.22,0,0,0,11.92,88.68Z"/><path class="cls-2" d="M81.1,99A10.81,10.81,0,0,1,70.16,87.43,12.27,12.27,0,0,1,82.31,75.89,10.8,10.8,0,0,1,93.24,87.43,12.42,12.42,0,0,1,81.1,99Zm.56-20.5a10.19,10.19,0,0,0-10,9.5,9,9,0,0,0,9,9.5,10.19,10.19,0,0,0,10-9.5A8.92,8.92,0,0,0,81.66,78.48Z"/><path class="cls-2" d="M80.39,94.84a6.06,6.06,0,0,1-6.1-6.43A6.88,6.88,0,0,1,81.06,82a6.06,6.06,0,0,1,6.1,6.43A6.88,6.88,0,0,1,80.39,94.84Zm1-11.36A4.78,4.78,0,0,0,76.66,88a4.21,4.21,0,0,0,4.26,4.5A4.78,4.78,0,0,0,85.66,88,4.21,4.21,0,0,0,81.4,83.48Z"/><path class="cls-2" d="M73.9,77.68a.83.83,0,0,1-.59-.3L73,77a.8.8,0,0,1,.15-1.1.79.79,0,0,1,1.1.1l.28.4a.8.8,0,0,1-.16,1.1A1.83,1.83,0,0,1,73.9,77.68Z"/><path class="cls-2" d="M71.65,74.88a.83.83,0,0,1-.59-.3l-.66-.8a.81.81,0,0,1,.16-1.1.79.79,0,0,1,1.1.1l.65.8a.8.8,0,0,1-.15,1.1A.81.81,0,0,1,71.65,74.88Zm-2.54-3.2a.81.81,0,0,1-.58-.3l-.66-.8a.8.8,0,0,1,.16-1.1.78.78,0,0,1,1.09.1l.66.8a.79.79,0,0,1-.16,1.1A1.09,1.09,0,0,1,69.11,71.68Z"/><path class="cls-2" d="M66.58,68.48a.81.81,0,0,1-.58-.3l-.28-.4a.79.79,0,0,1,.16-1.1.78.78,0,0,1,1.09.1l.28.4a.8.8,0,0,1-.16,1.1A1.09,1.09,0,0,1,66.58,68.48Z"/><path class="cls-2" d="M49,46.88a.81.81,0,0,1-.58-.3l-.28-.4a.8.8,0,0,1,.16-1.1.78.78,0,0,1,1.09.1l.28.4a.79.79,0,0,1-.16,1.1A.58.58,0,0,1,49,46.88Z"/><path class="cls-2" d="M46.65,44.18a.81.81,0,0,1-.58-.3l-.66-.8a.8.8,0,0,1,.16-1.1.78.78,0,0,1,1.09.1l.66.8a.8.8,0,0,1-.15,1.1A.84.84,0,0,1,46.65,44.18ZM44,41a.81.81,0,0,1-.58-.3l-.66-.8a.8.8,0,0,1,.16-1.1.78.78,0,0,1,1.09.1l.66.8a.8.8,0,0,1-.16,1.1A.79.79,0,0,1,44,41Zm-2.62-3.3a.83.83,0,0,1-.59-.3l-.66-.8a.81.81,0,0,1,.16-1.1.79.79,0,0,1,1.1.1l.65.8a.8.8,0,0,1-.15,1.1C41.8,37.68,41.6,37.68,41.4,37.68Zm-2.64-3.2a.81.81,0,0,1-.58-.3l-.66-.7a.8.8,0,0,1,.15-1.1.79.79,0,0,1,1.1.1l.66.8a.81.81,0,0,1-.16,1.1A.79.79,0,0,1,38.76,34.48Zm-2.63-3.2a.81.81,0,0,1-.58-.3l-.66-.8a.79.79,0,0,1,.16-1.1.78.78,0,0,1,1.09.1l.66.8a.8.8,0,0,1-.16,1.1A.58.58,0,0,1,36.13,31.28Zm-2.63-3.2a.83.83,0,0,1-.59-.3l-.65-.8a.8.8,0,0,1,.15-1.1.79.79,0,0,1,1.1.1l.66.8a.81.81,0,0,1-.16,1.1A.68.68,0,0,1,33.5,28.08Z"/><path class="cls-2" d="M30.87,24.88a.83.83,0,0,1-.59-.3l-.28-.3a.79.79,0,0,1,.16-1.1.78.78,0,0,1,1.09.1l.28.4a.8.8,0,0,1-.16,1.1A1.09,1.09,0,0,1,30.87,24.88Z"/><path class="cls-2" d="M57.4,68.08a10,10,0,0,1-8.47-4.4,10.11,10.11,0,0,1-2-6.6,11.68,11.68,0,0,1,4.23-8.3,11.32,11.32,0,0,1,7.35-2.7,10.15,10.15,0,0,1,8.38,4.2,10.56,10.56,0,0,1,2,6.8,11.78,11.78,0,0,1-11.58,11Zm.66-19.71A9,9,0,0,0,52,50.67a9.57,9.57,0,0,0-3.53,6.9A8.33,8.33,0,0,0,50.1,63a8.47,8.47,0,0,0,7.1,3.64,10,10,0,0,0,6.15-2.3,9.43,9.43,0,0,0,3.43-6.81,9,9,0,0,0-1.62-5.65A8.62,8.62,0,0,0,58.06,48.37Z"/><path class="cls-2" d="M46,66.58a.78.78,0,0,1-.43-1.4l.42-.3a.78.78,0,0,1,1.09.1.8.8,0,0,1-.15,1.1l-.42.3A.58.58,0,0,1,46,66.58Z"/><path class="cls-2" d="M25.37,82a.77.77,0,0,1-.42-1.4l.83-.6a.78.78,0,0,1,1.09.1.8.8,0,0,1-.15,1.1l-.84.6A1.09,1.09,0,0,1,25.37,82Zm3.44-2.6a.78.78,0,0,1-.43-1.4l.83-.6a.79.79,0,0,1,1.1.1.8.8,0,0,1-.16,1.1l-.83.6A.58.58,0,0,1,28.81,79.38Zm3.43-2.5a.78.78,0,0,1-.43-1.4l.84-.6a.78.78,0,0,1,1.09.1.8.8,0,0,1-.16,1.1l-.83.6A1.09,1.09,0,0,1,32.24,76.88Zm3.44-2.6a.83.83,0,0,1-.59-.3.8.8,0,0,1,.16-1.1l.83-.6a.79.79,0,0,1,1.1.1.81.81,0,0,1-.16,1.1l-.83.6A.58.58,0,0,1,35.68,74.28Zm3.43-2.5a.83.83,0,0,1-.59-.3.81.81,0,0,1,.16-1.1l.83-.6a.79.79,0,0,1,1.1.1.8.8,0,0,1-.16,1.1l-.83.6C39.41,71.68,39.31,71.78,39.11,71.78Zm3.43-2.6a.77.77,0,0,1-.42-1.4l.83-.6a.78.78,0,0,1,1.09.1.8.8,0,0,1-.15,1.1l-.83.6A1.17,1.17,0,0,1,42.54,69.18Z"/><path class="cls-2" d="M22.36,84.18a.83.83,0,0,1-.59-.3.81.81,0,0,1,.16-1.1l.42-.3a.78.78,0,0,1,1.09.1.79.79,0,0,1-.16,1.1l-.42.4A.75.75,0,0,1,22.36,84.18Z"/><path class="cls-2" d="M86.25,36.68a.83.83,0,0,1-.59-.3.81.81,0,0,1,.16-1.1l.42-.3a.78.78,0,0,1,1.09.1.79.79,0,0,1-.16,1.1l-.41.3A.81.81,0,0,1,86.25,36.68Z"/><path class="cls-2" d="M72.41,46.88a.81.81,0,0,1-.58-.3.79.79,0,0,1,.16-1.1l.92-.5a.79.79,0,0,1,1.1.1.8.8,0,0,1-.16,1.1l-.83.6A1.55,1.55,0,0,1,72.41,46.88Zm3.43-2.5a.77.77,0,0,1-.42-1.4l.83-.6a.78.78,0,0,1,1.09.1.8.8,0,0,1-.15,1.1l-.84.6A.79.79,0,0,1,75.84,44.38Zm3.54-2.6a.78.78,0,0,1-.43-1.4l.84-.6a.78.78,0,0,1,1.09.1.8.8,0,0,1-.16,1.1l-.83.6A.68.68,0,0,1,79.38,41.78Zm3.44-2.6a.83.83,0,0,1-.59-.3.8.8,0,0,1,.16-1.1l.83-.6a.79.79,0,0,1,1.1.1.81.81,0,0,1-.16,1.1l-.83.6A.58.58,0,0,1,82.82,39.18Z"/><path class="cls-2" d="M69.39,49.18a.81.81,0,0,1-.58-.3.79.79,0,0,1,.16-1.1l.41-.3a.79.79,0,0,1,1.1.1.81.81,0,0,1-.16,1.1l-.42.3A1.09,1.09,0,0,1,69.39,49.18Z"/></svg>